<mxfile host="app.diagrams.net" agent="Mozilla/5.0 (Windows NT 10.0; Win64; x64) AppleWebKit/537.36 (KHTML, like Gecko) Chrome/131.0.0.0 Safari/537.36" version="25.0.1">
  <diagram name="第 1 页" id="ragMPmVmqB-l9JqLLVae">
    <mxGraphModel dx="1500" dy="933" grid="1" gridSize="10" guides="1" tooltips="1" connect="1" arrows="1" fold="1" page="1" pageScale="1" pageWidth="827" pageHeight="1169" math="0" shadow="0">
      <root>
        <mxCell id="0" />
        <mxCell id="1" parent="0" />
        <mxCell id="O8RlAg53PrCzjrN2fHx7-272" value="初中《音乐机器人》教学资源开发与实践" style="whiteSpace=wrap;strokeWidth=2;" vertex="1" parent="1">
          <mxGeometry x="20" y="999" width="253" height="66" as="geometry" />
        </mxCell>
        <mxCell id="O8RlAg53PrCzjrN2fHx7-273" value="研究准备" style="whiteSpace=wrap;strokeWidth=2;" vertex="1" parent="1">
          <mxGeometry x="331" y="319" width="125" height="48" as="geometry" />
        </mxCell>
        <mxCell id="O8RlAg53PrCzjrN2fHx7-274" value="理论基础: ADDIE模型" style="whiteSpace=wrap;strokeWidth=2;" vertex="1" parent="1">
          <mxGeometry x="514" y="270" width="210" height="48" as="geometry" />
        </mxCell>
        <mxCell id="O8RlAg53PrCzjrN2fHx7-275" value="需求分析" style="whiteSpace=wrap;strokeWidth=2;" vertex="1" parent="1">
          <mxGeometry x="556" y="368" width="125" height="48" as="geometry" />
        </mxCell>
        <mxCell id="O8RlAg53PrCzjrN2fHx7-276" value="教学内容分析" style="whiteSpace=wrap;strokeWidth=2;" vertex="1" parent="1">
          <mxGeometry x="805" y="270" width="158" height="48" as="geometry" />
        </mxCell>
        <mxCell id="O8RlAg53PrCzjrN2fHx7-277" value="学习者特征分析" style="whiteSpace=wrap;strokeWidth=2;" vertex="1" parent="1">
          <mxGeometry x="797" y="368" width="173" height="48" as="geometry" />
        </mxCell>
        <mxCell id="O8RlAg53PrCzjrN2fHx7-278" value="资源设计原则" style="whiteSpace=wrap;strokeWidth=2;" vertex="1" parent="1">
          <mxGeometry x="806" y="467" width="156" height="48" as="geometry" />
        </mxCell>
        <mxCell id="O8RlAg53PrCzjrN2fHx7-279" value="资源开发" style="whiteSpace=wrap;strokeWidth=2;" vertex="1" parent="1">
          <mxGeometry x="331" y="811" width="124" height="48" as="geometry" />
        </mxCell>
        <mxCell id="O8RlAg53PrCzjrN2fHx7-280" value="设计阶段" style="whiteSpace=wrap;strokeWidth=2;" vertex="1" parent="1">
          <mxGeometry x="556" y="664" width="125" height="48" as="geometry" />
        </mxCell>
        <mxCell id="O8RlAg53PrCzjrN2fHx7-281" value="微课制作" style="whiteSpace=wrap;strokeWidth=2;" vertex="1" parent="1">
          <mxGeometry x="822" y="565" width="124" height="48" as="geometry" />
        </mxCell>
        <mxCell id="O8RlAg53PrCzjrN2fHx7-282" value="编程与音乐融合设计" style="whiteSpace=wrap;strokeWidth=2;" vertex="1" parent="1">
          <mxGeometry x="781" y="664" width="205" height="48" as="geometry" />
        </mxCell>
        <mxCell id="O8RlAg53PrCzjrN2fHx7-283" value="任务单编写" style="whiteSpace=wrap;strokeWidth=2;" vertex="1" parent="1">
          <mxGeometry x="813" y="762" width="141" height="48" as="geometry" />
        </mxCell>
        <mxCell id="O8RlAg53PrCzjrN2fHx7-284" value="开发阶段" style="whiteSpace=wrap;strokeWidth=2;" vertex="1" parent="1">
          <mxGeometry x="556" y="959" width="125" height="48" as="geometry" />
        </mxCell>
        <mxCell id="O8RlAg53PrCzjrN2fHx7-285" value="课件与配套资源开发" style="whiteSpace=wrap;strokeWidth=2;" vertex="1" parent="1">
          <mxGeometry x="782" y="860" width="204" height="48" as="geometry" />
        </mxCell>
        <mxCell id="O8RlAg53PrCzjrN2fHx7-286" value="教具与硬件测试" style="whiteSpace=wrap;strokeWidth=2;" vertex="1" parent="1">
          <mxGeometry x="797" y="959" width="174" height="48" as="geometry" />
        </mxCell>
        <mxCell id="O8RlAg53PrCzjrN2fHx7-287" value="教学实施" style="whiteSpace=wrap;strokeWidth=2;" vertex="1" parent="1">
          <mxGeometry x="330" y="1254" width="126" height="48" as="geometry" />
        </mxCell>
        <mxCell id="O8RlAg53PrCzjrN2fHx7-288" value="教学模式" style="whiteSpace=wrap;strokeWidth=2;" vertex="1" parent="1">
          <mxGeometry x="556" y="1156" width="125" height="48" as="geometry" />
        </mxCell>
        <mxCell id="O8RlAg53PrCzjrN2fHx7-289" value="任务驱动教学" style="whiteSpace=wrap;strokeWidth=2;" vertex="1" parent="1">
          <mxGeometry x="805" y="1057" width="157" height="48" as="geometry" />
        </mxCell>
        <mxCell id="O8RlAg53PrCzjrN2fHx7-290" value="实验课程示范" style="whiteSpace=wrap;strokeWidth=2;" vertex="1" parent="1">
          <mxGeometry x="806" y="1156" width="156" height="48" as="geometry" />
        </mxCell>
        <mxCell id="O8RlAg53PrCzjrN2fHx7-291" value="实施阶段" style="whiteSpace=wrap;strokeWidth=2;" vertex="1" parent="1">
          <mxGeometry x="556" y="1352" width="125" height="48" as="geometry" />
        </mxCell>
        <mxCell id="O8RlAg53PrCzjrN2fHx7-292" value="第1阶段: 知识传授" style="whiteSpace=wrap;strokeWidth=2;" vertex="1" parent="1">
          <mxGeometry x="787" y="1254" width="193" height="48" as="geometry" />
        </mxCell>
        <mxCell id="O8RlAg53PrCzjrN2fHx7-293" value="第2阶段: 学生实践" style="whiteSpace=wrap;strokeWidth=2;" vertex="1" parent="1">
          <mxGeometry x="787" y="1352" width="193" height="48" as="geometry" />
        </mxCell>
        <mxCell id="O8RlAg53PrCzjrN2fHx7-294" value="第3阶段: 整体反馈" style="whiteSpace=wrap;strokeWidth=2;" vertex="1" parent="1">
          <mxGeometry x="787" y="1451" width="193" height="48" as="geometry" />
        </mxCell>
        <mxCell id="O8RlAg53PrCzjrN2fHx7-295" value="评价与优化" style="whiteSpace=wrap;strokeWidth=2;" vertex="1" parent="1">
          <mxGeometry x="323" y="1697" width="141" height="48" as="geometry" />
        </mxCell>
        <mxCell id="O8RlAg53PrCzjrN2fHx7-296" value="数据收集" style="whiteSpace=wrap;strokeWidth=2;" vertex="1" parent="1">
          <mxGeometry x="556" y="1648" width="126" height="48" as="geometry" />
        </mxCell>
        <mxCell id="O8RlAg53PrCzjrN2fHx7-297" value="学生成绩分析" style="whiteSpace=wrap;strokeWidth=2;" vertex="1" parent="1">
          <mxGeometry x="805" y="1549" width="157" height="48" as="geometry" />
        </mxCell>
        <mxCell id="O8RlAg53PrCzjrN2fHx7-298" value="问卷调查" style="whiteSpace=wrap;strokeWidth=2;" vertex="1" parent="1">
          <mxGeometry x="821" y="1648" width="125" height="48" as="geometry" />
        </mxCell>
        <mxCell id="O8RlAg53PrCzjrN2fHx7-299" value="教学改进" style="whiteSpace=wrap;strokeWidth=2;" vertex="1" parent="1">
          <mxGeometry x="556" y="1746" width="125" height="48" as="geometry" />
        </mxCell>
        <mxCell id="O8RlAg53PrCzjrN2fHx7-300" value="根据数据优化教学设计" style="whiteSpace=wrap;strokeWidth=2;" vertex="1" parent="1">
          <mxGeometry x="773" y="1746" width="221" height="48" as="geometry" />
        </mxCell>
        <mxCell id="O8RlAg53PrCzjrN2fHx7-301" value="" style="curved=1;startArrow=none;endArrow=block;exitX=0.53;exitY=0;entryX=0;entryY=0.51;rounded=0;" edge="1" parent="1" source="O8RlAg53PrCzjrN2fHx7-272" target="O8RlAg53PrCzjrN2fHx7-273">
          <mxGeometry relative="1" as="geometry">
            <Array as="points">
              <mxPoint x="298" y="343" />
            </Array>
          </mxGeometry>
        </mxCell>
        <mxCell id="O8RlAg53PrCzjrN2fHx7-302" value="" style="curved=1;startArrow=none;endArrow=block;exitX=0.87;exitY=0;entryX=0;entryY=0.5;rounded=0;" edge="1" parent="1" source="O8RlAg53PrCzjrN2fHx7-273" target="O8RlAg53PrCzjrN2fHx7-274">
          <mxGeometry relative="1" as="geometry">
            <Array as="points">
              <mxPoint x="489" y="294" />
            </Array>
          </mxGeometry>
        </mxCell>
        <mxCell id="O8RlAg53PrCzjrN2fHx7-303" value="" style="curved=1;startArrow=none;endArrow=block;exitX=0.87;exitY=1.01;entryX=0;entryY=0.51;rounded=0;" edge="1" parent="1" source="O8RlAg53PrCzjrN2fHx7-273" target="O8RlAg53PrCzjrN2fHx7-275">
          <mxGeometry relative="1" as="geometry">
            <Array as="points">
              <mxPoint x="489" y="393" />
            </Array>
          </mxGeometry>
        </mxCell>
        <mxCell id="O8RlAg53PrCzjrN2fHx7-304" value="" style="curved=1;startArrow=none;endArrow=block;exitX=0.75;exitY=0.01;entryX=0;entryY=0.5;rounded=0;" edge="1" parent="1" source="O8RlAg53PrCzjrN2fHx7-275" target="O8RlAg53PrCzjrN2fHx7-276">
          <mxGeometry relative="1" as="geometry">
            <Array as="points">
              <mxPoint x="748" y="294" />
            </Array>
          </mxGeometry>
        </mxCell>
        <mxCell id="O8RlAg53PrCzjrN2fHx7-305" value="" style="curved=1;startArrow=none;endArrow=block;exitX=1;exitY=0.51;entryX=0;entryY=0.51;rounded=0;" edge="1" parent="1" source="O8RlAg53PrCzjrN2fHx7-275" target="O8RlAg53PrCzjrN2fHx7-277">
          <mxGeometry relative="1" as="geometry">
            <Array as="points" />
          </mxGeometry>
        </mxCell>
        <mxCell id="O8RlAg53PrCzjrN2fHx7-306" value="" style="curved=1;startArrow=none;endArrow=block;exitX=0.75;exitY=1.02;entryX=0;entryY=0.5;rounded=0;" edge="1" parent="1" source="O8RlAg53PrCzjrN2fHx7-275" target="O8RlAg53PrCzjrN2fHx7-278">
          <mxGeometry relative="1" as="geometry">
            <Array as="points">
              <mxPoint x="748" y="491" />
            </Array>
          </mxGeometry>
        </mxCell>
        <mxCell id="O8RlAg53PrCzjrN2fHx7-307" value="" style="curved=1;startArrow=none;endArrow=block;exitX=0.6;exitY=0;entryX=0;entryY=0.51;rounded=0;" edge="1" parent="1" source="O8RlAg53PrCzjrN2fHx7-272" target="O8RlAg53PrCzjrN2fHx7-279">
          <mxGeometry relative="1" as="geometry">
            <Array as="points">
              <mxPoint x="298" y="835" />
            </Array>
          </mxGeometry>
        </mxCell>
        <mxCell id="O8RlAg53PrCzjrN2fHx7-308" value="" style="curved=1;startArrow=none;endArrow=block;exitX=0.63;exitY=0;entryX=0;entryY=0.5;rounded=0;" edge="1" parent="1" source="O8RlAg53PrCzjrN2fHx7-279" target="O8RlAg53PrCzjrN2fHx7-280">
          <mxGeometry relative="1" as="geometry">
            <Array as="points">
              <mxPoint x="489" y="688" />
            </Array>
          </mxGeometry>
        </mxCell>
        <mxCell id="O8RlAg53PrCzjrN2fHx7-309" value="" style="curved=1;startArrow=none;endArrow=block;exitX=0.75;exitY=-0.01;entryX=0;entryY=0.51;rounded=0;" edge="1" parent="1" source="O8RlAg53PrCzjrN2fHx7-280" target="O8RlAg53PrCzjrN2fHx7-281">
          <mxGeometry relative="1" as="geometry">
            <Array as="points">
              <mxPoint x="748" y="589" />
            </Array>
          </mxGeometry>
        </mxCell>
        <mxCell id="O8RlAg53PrCzjrN2fHx7-310" value="" style="curved=1;startArrow=none;endArrow=block;exitX=1;exitY=0.5;entryX=0;entryY=0.5;rounded=0;" edge="1" parent="1" source="O8RlAg53PrCzjrN2fHx7-280" target="O8RlAg53PrCzjrN2fHx7-282">
          <mxGeometry relative="1" as="geometry">
            <Array as="points" />
          </mxGeometry>
        </mxCell>
        <mxCell id="O8RlAg53PrCzjrN2fHx7-311" value="" style="curved=1;startArrow=none;endArrow=block;exitX=0.75;exitY=1;entryX=0;entryY=0.5;rounded=0;" edge="1" parent="1" source="O8RlAg53PrCzjrN2fHx7-280" target="O8RlAg53PrCzjrN2fHx7-283">
          <mxGeometry relative="1" as="geometry">
            <Array as="points">
              <mxPoint x="748" y="786" />
            </Array>
          </mxGeometry>
        </mxCell>
        <mxCell id="O8RlAg53PrCzjrN2fHx7-312" value="" style="curved=1;startArrow=none;endArrow=block;exitX=0.63;exitY=1.01;entryX=0;entryY=0.5;rounded=0;" edge="1" parent="1" source="O8RlAg53PrCzjrN2fHx7-279" target="O8RlAg53PrCzjrN2fHx7-284">
          <mxGeometry relative="1" as="geometry">
            <Array as="points">
              <mxPoint x="489" y="983" />
            </Array>
          </mxGeometry>
        </mxCell>
        <mxCell id="O8RlAg53PrCzjrN2fHx7-313" value="" style="curved=1;startArrow=none;endArrow=block;exitX=0.75;exitY=0;entryX=0;entryY=0.51;rounded=0;" edge="1" parent="1" source="O8RlAg53PrCzjrN2fHx7-284" target="O8RlAg53PrCzjrN2fHx7-285">
          <mxGeometry relative="1" as="geometry">
            <Array as="points">
              <mxPoint x="748" y="885" />
            </Array>
          </mxGeometry>
        </mxCell>
        <mxCell id="O8RlAg53PrCzjrN2fHx7-314" value="" style="curved=1;startArrow=none;endArrow=block;exitX=1;exitY=0.5;entryX=0;entryY=0.5;rounded=0;" edge="1" parent="1" source="O8RlAg53PrCzjrN2fHx7-284" target="O8RlAg53PrCzjrN2fHx7-286">
          <mxGeometry relative="1" as="geometry">
            <Array as="points" />
          </mxGeometry>
        </mxCell>
        <mxCell id="O8RlAg53PrCzjrN2fHx7-315" value="" style="curved=1;startArrow=none;endArrow=block;exitX=0.58;exitY=1;entryX=0;entryY=0.5;rounded=0;" edge="1" parent="1" source="O8RlAg53PrCzjrN2fHx7-272" target="O8RlAg53PrCzjrN2fHx7-287">
          <mxGeometry relative="1" as="geometry">
            <Array as="points">
              <mxPoint x="298" y="1278" />
            </Array>
          </mxGeometry>
        </mxCell>
        <mxCell id="O8RlAg53PrCzjrN2fHx7-316" value="" style="curved=1;startArrow=none;endArrow=block;exitX=0.69;exitY=0;entryX=0;entryY=0.5;rounded=0;" edge="1" parent="1" source="O8RlAg53PrCzjrN2fHx7-287" target="O8RlAg53PrCzjrN2fHx7-288">
          <mxGeometry relative="1" as="geometry">
            <Array as="points">
              <mxPoint x="489" y="1180" />
            </Array>
          </mxGeometry>
        </mxCell>
        <mxCell id="O8RlAg53PrCzjrN2fHx7-317" value="" style="curved=1;startArrow=none;endArrow=block;exitX=0.75;exitY=-0.01;entryX=0;entryY=0.51;rounded=0;" edge="1" parent="1" source="O8RlAg53PrCzjrN2fHx7-288" target="O8RlAg53PrCzjrN2fHx7-289">
          <mxGeometry relative="1" as="geometry">
            <Array as="points">
              <mxPoint x="748" y="1081" />
            </Array>
          </mxGeometry>
        </mxCell>
        <mxCell id="O8RlAg53PrCzjrN2fHx7-318" value="" style="curved=1;startArrow=none;endArrow=block;exitX=1;exitY=0.5;entryX=0;entryY=0.5;rounded=0;" edge="1" parent="1" source="O8RlAg53PrCzjrN2fHx7-288" target="O8RlAg53PrCzjrN2fHx7-290">
          <mxGeometry relative="1" as="geometry">
            <Array as="points" />
          </mxGeometry>
        </mxCell>
        <mxCell id="O8RlAg53PrCzjrN2fHx7-319" value="" style="curved=1;startArrow=none;endArrow=block;exitX=0.69;exitY=1.01;entryX=0;entryY=0.51;rounded=0;" edge="1" parent="1" source="O8RlAg53PrCzjrN2fHx7-287" target="O8RlAg53PrCzjrN2fHx7-291">
          <mxGeometry relative="1" as="geometry">
            <Array as="points">
              <mxPoint x="489" y="1377" />
            </Array>
          </mxGeometry>
        </mxCell>
        <mxCell id="O8RlAg53PrCzjrN2fHx7-320" value="" style="curved=1;startArrow=none;endArrow=block;exitX=0.75;exitY=0.01;entryX=0;entryY=0.5;rounded=0;" edge="1" parent="1" source="O8RlAg53PrCzjrN2fHx7-291" target="O8RlAg53PrCzjrN2fHx7-292">
          <mxGeometry relative="1" as="geometry">
            <Array as="points">
              <mxPoint x="748" y="1278" />
            </Array>
          </mxGeometry>
        </mxCell>
        <mxCell id="O8RlAg53PrCzjrN2fHx7-321" value="" style="curved=1;startArrow=none;endArrow=block;exitX=1;exitY=0.51;entryX=0;entryY=0.51;rounded=0;" edge="1" parent="1" source="O8RlAg53PrCzjrN2fHx7-291" target="O8RlAg53PrCzjrN2fHx7-293">
          <mxGeometry relative="1" as="geometry">
            <Array as="points" />
          </mxGeometry>
        </mxCell>
        <mxCell id="O8RlAg53PrCzjrN2fHx7-322" value="" style="curved=1;startArrow=none;endArrow=block;exitX=0.75;exitY=1.02;entryX=0;entryY=0.5;rounded=0;" edge="1" parent="1" source="O8RlAg53PrCzjrN2fHx7-291" target="O8RlAg53PrCzjrN2fHx7-294">
          <mxGeometry relative="1" as="geometry">
            <Array as="points">
              <mxPoint x="748" y="1475" />
            </Array>
          </mxGeometry>
        </mxCell>
        <mxCell id="O8RlAg53PrCzjrN2fHx7-323" value="" style="curved=1;startArrow=none;endArrow=block;exitX=0.53;exitY=1;entryX=0;entryY=0.5;rounded=0;" edge="1" parent="1" source="O8RlAg53PrCzjrN2fHx7-272" target="O8RlAg53PrCzjrN2fHx7-295">
          <mxGeometry relative="1" as="geometry">
            <Array as="points">
              <mxPoint x="298" y="1721" />
            </Array>
          </mxGeometry>
        </mxCell>
        <mxCell id="O8RlAg53PrCzjrN2fHx7-324" value="" style="curved=1;startArrow=none;endArrow=block;exitX=0.83;exitY=0;entryX=0;entryY=0.5;rounded=0;" edge="1" parent="1" source="O8RlAg53PrCzjrN2fHx7-295" target="O8RlAg53PrCzjrN2fHx7-296">
          <mxGeometry relative="1" as="geometry">
            <Array as="points">
              <mxPoint x="489" y="1672" />
            </Array>
          </mxGeometry>
        </mxCell>
        <mxCell id="O8RlAg53PrCzjrN2fHx7-325" value="" style="curved=1;startArrow=none;endArrow=block;exitX=0.75;exitY=-0.01;entryX=0;entryY=0.51;rounded=0;" edge="1" parent="1" source="O8RlAg53PrCzjrN2fHx7-296" target="O8RlAg53PrCzjrN2fHx7-297">
          <mxGeometry relative="1" as="geometry">
            <Array as="points">
              <mxPoint x="748" y="1573" />
            </Array>
          </mxGeometry>
        </mxCell>
        <mxCell id="O8RlAg53PrCzjrN2fHx7-326" value="" style="curved=1;startArrow=none;endArrow=block;exitX=0.99;exitY=0.5;entryX=0;entryY=0.5;rounded=0;" edge="1" parent="1" source="O8RlAg53PrCzjrN2fHx7-296" target="O8RlAg53PrCzjrN2fHx7-298">
          <mxGeometry relative="1" as="geometry">
            <Array as="points" />
          </mxGeometry>
        </mxCell>
        <mxCell id="O8RlAg53PrCzjrN2fHx7-327" value="" style="curved=1;startArrow=none;endArrow=block;exitX=0.83;exitY=1;entryX=0;entryY=0.5;rounded=0;" edge="1" parent="1" source="O8RlAg53PrCzjrN2fHx7-295" target="O8RlAg53PrCzjrN2fHx7-299">
          <mxGeometry relative="1" as="geometry">
            <Array as="points">
              <mxPoint x="489" y="1770" />
            </Array>
          </mxGeometry>
        </mxCell>
        <mxCell id="O8RlAg53PrCzjrN2fHx7-328" value="" style="curved=1;startArrow=none;endArrow=block;exitX=1;exitY=0.5;entryX=0;entryY=0.5;rounded=0;" edge="1" parent="1" source="O8RlAg53PrCzjrN2fHx7-299" target="O8RlAg53PrCzjrN2fHx7-300">
          <mxGeometry relative="1" as="geometry">
            <Array as="points" />
          </mxGeometry>
        </mxCell>
        <mxCell id="O8RlAg53PrCzjrN2fHx7-329" value="混合式教学模式下的STEAM课程开发研究" style="whiteSpace=wrap;strokeWidth=2;" vertex="1" parent="1">
          <mxGeometry x="140" y="2451" width="252" height="66" as="geometry" />
        </mxCell>
        <mxCell id="O8RlAg53PrCzjrN2fHx7-330" value="研究准备" style="whiteSpace=wrap;strokeWidth=2;" vertex="1" parent="1">
          <mxGeometry x="450" y="1869" width="125" height="48" as="geometry" />
        </mxCell>
        <mxCell id="O8RlAg53PrCzjrN2fHx7-331" value="理论支持: ADDIE模型" style="whiteSpace=wrap;strokeWidth=2;" vertex="1" parent="1">
          <mxGeometry x="632" y="1820" width="210" height="48" as="geometry" />
        </mxCell>
        <mxCell id="O8RlAg53PrCzjrN2fHx7-332" value="课程需求分析" style="whiteSpace=wrap;strokeWidth=2;" vertex="1" parent="1">
          <mxGeometry x="658" y="1918" width="157" height="48" as="geometry" />
        </mxCell>
        <mxCell id="O8RlAg53PrCzjrN2fHx7-333" value="STEAM课程核心内容提取" style="whiteSpace=wrap;strokeWidth=2;" vertex="1" parent="1">
          <mxGeometry x="902" y="1869" width="235" height="48" as="geometry" />
        </mxCell>
        <mxCell id="O8RlAg53PrCzjrN2fHx7-334" value="学生能力需求分析" style="whiteSpace=wrap;strokeWidth=2;" vertex="1" parent="1">
          <mxGeometry x="925" y="1968" width="189" height="48" as="geometry" />
        </mxCell>
        <mxCell id="O8RlAg53PrCzjrN2fHx7-335" value="教材开发" style="whiteSpace=wrap;strokeWidth=2;" vertex="1" parent="1">
          <mxGeometry x="450" y="2214" width="125" height="48" as="geometry" />
        </mxCell>
        <mxCell id="O8RlAg53PrCzjrN2fHx7-336" value="设计阶段" style="whiteSpace=wrap;strokeWidth=2;" vertex="1" parent="1">
          <mxGeometry x="674" y="2115" width="125" height="48" as="geometry" />
        </mxCell>
        <mxCell id="O8RlAg53PrCzjrN2fHx7-337" value="线上与线下资源整合" style="whiteSpace=wrap;strokeWidth=2;" vertex="1" parent="1">
          <mxGeometry x="917" y="2066" width="205" height="48" as="geometry" />
        </mxCell>
        <mxCell id="O8RlAg53PrCzjrN2fHx7-338" value="跨学科融合内容" style="whiteSpace=wrap;strokeWidth=2;" vertex="1" parent="1">
          <mxGeometry x="933" y="2164" width="173" height="48" as="geometry" />
        </mxCell>
        <mxCell id="O8RlAg53PrCzjrN2fHx7-339" value="开发阶段" style="whiteSpace=wrap;strokeWidth=2;" vertex="1" parent="1">
          <mxGeometry x="674" y="2312" width="125" height="48" as="geometry" />
        </mxCell>
        <mxCell id="O8RlAg53PrCzjrN2fHx7-340" value="教案设计" style="whiteSpace=wrap;strokeWidth=2;" vertex="1" parent="1">
          <mxGeometry x="957" y="2263" width="125" height="48" as="geometry" />
        </mxCell>
        <mxCell id="O8RlAg53PrCzjrN2fHx7-341" value="实验课程开发" style="whiteSpace=wrap;strokeWidth=2;" vertex="1" parent="1">
          <mxGeometry x="942" y="2361" width="156" height="48" as="geometry" />
        </mxCell>
        <mxCell id="O8RlAg53PrCzjrN2fHx7-342" value="实施阶段" style="whiteSpace=wrap;strokeWidth=2;" vertex="1" parent="1">
          <mxGeometry x="450" y="2706" width="125" height="48" as="geometry" />
        </mxCell>
        <mxCell id="O8RlAg53PrCzjrN2fHx7-343" value="教学实施" style="whiteSpace=wrap;strokeWidth=2;" vertex="1" parent="1">
          <mxGeometry x="674" y="2558" width="126" height="48" as="geometry" />
        </mxCell>
        <mxCell id="O8RlAg53PrCzjrN2fHx7-344" value="第1阶段: 知识讲解（线上）" style="whiteSpace=wrap;strokeWidth=2;" vertex="1" parent="1">
          <mxGeometry x="892" y="2460" width="256" height="48" as="geometry" />
        </mxCell>
        <mxCell id="O8RlAg53PrCzjrN2fHx7-345" value="第2阶段: 实验课程（线下）" style="whiteSpace=wrap;strokeWidth=2;" vertex="1" parent="1">
          <mxGeometry x="892" y="2558" width="256" height="48" as="geometry" />
        </mxCell>
        <mxCell id="O8RlAg53PrCzjrN2fHx7-346" value="第3阶段: 综合活动与项目" style="whiteSpace=wrap;strokeWidth=2;" vertex="1" parent="1">
          <mxGeometry x="900" y="2656" width="240" height="48" as="geometry" />
        </mxCell>
        <mxCell id="O8RlAg53PrCzjrN2fHx7-347" value="教学评价" style="whiteSpace=wrap;strokeWidth=2;" vertex="1" parent="1">
          <mxGeometry x="674" y="2804" width="126" height="48" as="geometry" />
        </mxCell>
        <mxCell id="O8RlAg53PrCzjrN2fHx7-348" value="学生成绩对比" style="whiteSpace=wrap;strokeWidth=2;" vertex="1" parent="1">
          <mxGeometry x="942" y="2755" width="156" height="48" as="geometry" />
        </mxCell>
        <mxCell id="O8RlAg53PrCzjrN2fHx7-349" value="学习参与度分析" style="whiteSpace=wrap;strokeWidth=2;" vertex="1" parent="1">
          <mxGeometry x="933" y="2853" width="173" height="48" as="geometry" />
        </mxCell>
        <mxCell id="O8RlAg53PrCzjrN2fHx7-350" value="优化与推广" style="whiteSpace=wrap;strokeWidth=2;" vertex="1" parent="1">
          <mxGeometry x="442" y="2952" width="140" height="48" as="geometry" />
        </mxCell>
        <mxCell id="O8RlAg53PrCzjrN2fHx7-351" value="教学改进策略" style="whiteSpace=wrap;strokeWidth=2;" vertex="1" parent="1">
          <mxGeometry x="658" y="2902" width="158" height="48" as="geometry" />
        </mxCell>
        <mxCell id="O8RlAg53PrCzjrN2fHx7-352" value="未来应用建议" style="whiteSpace=wrap;strokeWidth=2;" vertex="1" parent="1">
          <mxGeometry x="658" y="3001" width="157" height="48" as="geometry" />
        </mxCell>
        <mxCell id="O8RlAg53PrCzjrN2fHx7-353" value="" style="curved=1;startArrow=none;endArrow=block;exitX=0.53;exitY=0;entryX=0;entryY=0.51;rounded=0;" edge="1" parent="1" source="O8RlAg53PrCzjrN2fHx7-329" target="O8RlAg53PrCzjrN2fHx7-330">
          <mxGeometry relative="1" as="geometry">
            <Array as="points">
              <mxPoint x="417" y="1893" />
            </Array>
          </mxGeometry>
        </mxCell>
        <mxCell id="O8RlAg53PrCzjrN2fHx7-354" value="" style="curved=1;startArrow=none;endArrow=block;exitX=0.87;exitY=0;entryX=0;entryY=0.5;rounded=0;" edge="1" parent="1" source="O8RlAg53PrCzjrN2fHx7-330" target="O8RlAg53PrCzjrN2fHx7-331">
          <mxGeometry relative="1" as="geometry">
            <Array as="points">
              <mxPoint x="607" y="1844" />
            </Array>
          </mxGeometry>
        </mxCell>
        <mxCell id="O8RlAg53PrCzjrN2fHx7-355" value="" style="curved=1;startArrow=none;endArrow=block;exitX=0.87;exitY=1.01;entryX=0;entryY=0.51;rounded=0;" edge="1" parent="1" source="O8RlAg53PrCzjrN2fHx7-330" target="O8RlAg53PrCzjrN2fHx7-332">
          <mxGeometry relative="1" as="geometry">
            <Array as="points">
              <mxPoint x="607" y="1943" />
            </Array>
          </mxGeometry>
        </mxCell>
        <mxCell id="O8RlAg53PrCzjrN2fHx7-356" value="" style="curved=1;startArrow=none;endArrow=block;exitX=0.91;exitY=0.01;entryX=0;entryY=0.51;rounded=0;" edge="1" parent="1" source="O8RlAg53PrCzjrN2fHx7-332" target="O8RlAg53PrCzjrN2fHx7-333">
          <mxGeometry relative="1" as="geometry">
            <Array as="points">
              <mxPoint x="867" y="1893" />
            </Array>
          </mxGeometry>
        </mxCell>
        <mxCell id="O8RlAg53PrCzjrN2fHx7-357" value="" style="curved=1;startArrow=none;endArrow=block;exitX=0.91;exitY=1.02;entryX=0;entryY=0.5;rounded=0;" edge="1" parent="1" source="O8RlAg53PrCzjrN2fHx7-332" target="O8RlAg53PrCzjrN2fHx7-334">
          <mxGeometry relative="1" as="geometry">
            <Array as="points">
              <mxPoint x="867" y="1992" />
            </Array>
          </mxGeometry>
        </mxCell>
        <mxCell id="O8RlAg53PrCzjrN2fHx7-358" value="" style="curved=1;startArrow=none;endArrow=block;exitX=0.58;exitY=0;entryX=0;entryY=0.5;rounded=0;" edge="1" parent="1" source="O8RlAg53PrCzjrN2fHx7-329" target="O8RlAg53PrCzjrN2fHx7-335">
          <mxGeometry relative="1" as="geometry">
            <Array as="points">
              <mxPoint x="417" y="2238" />
            </Array>
          </mxGeometry>
        </mxCell>
        <mxCell id="O8RlAg53PrCzjrN2fHx7-359" value="" style="curved=1;startArrow=none;endArrow=block;exitX=0.68;exitY=-0.01;entryX=0;entryY=0.51;rounded=0;" edge="1" parent="1" source="O8RlAg53PrCzjrN2fHx7-335" target="O8RlAg53PrCzjrN2fHx7-336">
          <mxGeometry relative="1" as="geometry">
            <Array as="points">
              <mxPoint x="607" y="2139" />
            </Array>
          </mxGeometry>
        </mxCell>
        <mxCell id="O8RlAg53PrCzjrN2fHx7-360" value="" style="curved=1;startArrow=none;endArrow=block;exitX=1;exitY=0.02;entryX=0;entryY=0.5;rounded=0;" edge="1" parent="1" source="O8RlAg53PrCzjrN2fHx7-336" target="O8RlAg53PrCzjrN2fHx7-337">
          <mxGeometry relative="1" as="geometry">
            <Array as="points">
              <mxPoint x="867" y="2090" />
            </Array>
          </mxGeometry>
        </mxCell>
        <mxCell id="O8RlAg53PrCzjrN2fHx7-361" value="" style="curved=1;startArrow=none;endArrow=block;exitX=1;exitY=1;entryX=0;entryY=0.51;rounded=0;" edge="1" parent="1" source="O8RlAg53PrCzjrN2fHx7-336" target="O8RlAg53PrCzjrN2fHx7-338">
          <mxGeometry relative="1" as="geometry">
            <Array as="points">
              <mxPoint x="867" y="2189" />
            </Array>
          </mxGeometry>
        </mxCell>
        <mxCell id="O8RlAg53PrCzjrN2fHx7-362" value="" style="curved=1;startArrow=none;endArrow=block;exitX=0.68;exitY=1;entryX=0;entryY=0.5;rounded=0;" edge="1" parent="1" source="O8RlAg53PrCzjrN2fHx7-335" target="O8RlAg53PrCzjrN2fHx7-339">
          <mxGeometry relative="1" as="geometry">
            <Array as="points">
              <mxPoint x="607" y="2336" />
            </Array>
          </mxGeometry>
        </mxCell>
        <mxCell id="O8RlAg53PrCzjrN2fHx7-363" value="" style="curved=1;startArrow=none;endArrow=block;exitX=1;exitY=0.01;entryX=0;entryY=0.5;rounded=0;" edge="1" parent="1" source="O8RlAg53PrCzjrN2fHx7-339" target="O8RlAg53PrCzjrN2fHx7-340">
          <mxGeometry relative="1" as="geometry">
            <Array as="points">
              <mxPoint x="867" y="2287" />
            </Array>
          </mxGeometry>
        </mxCell>
        <mxCell id="O8RlAg53PrCzjrN2fHx7-364" value="" style="curved=1;startArrow=none;endArrow=block;exitX=1;exitY=1;entryX=0;entryY=0.51;rounded=0;" edge="1" parent="1" source="O8RlAg53PrCzjrN2fHx7-339" target="O8RlAg53PrCzjrN2fHx7-341">
          <mxGeometry relative="1" as="geometry">
            <Array as="points">
              <mxPoint x="867" y="2385" />
            </Array>
          </mxGeometry>
        </mxCell>
        <mxCell id="O8RlAg53PrCzjrN2fHx7-365" value="" style="curved=1;startArrow=none;endArrow=block;exitX=0.58;exitY=1;entryX=0;entryY=0.5;rounded=0;" edge="1" parent="1" source="O8RlAg53PrCzjrN2fHx7-329" target="O8RlAg53PrCzjrN2fHx7-342">
          <mxGeometry relative="1" as="geometry">
            <Array as="points">
              <mxPoint x="417" y="2730" />
            </Array>
          </mxGeometry>
        </mxCell>
        <mxCell id="O8RlAg53PrCzjrN2fHx7-366" value="" style="curved=1;startArrow=none;endArrow=block;exitX=0.62;exitY=-0.01;entryX=0;entryY=0.5;rounded=0;" edge="1" parent="1" source="O8RlAg53PrCzjrN2fHx7-342" target="O8RlAg53PrCzjrN2fHx7-343">
          <mxGeometry relative="1" as="geometry">
            <Array as="points">
              <mxPoint x="607" y="2582" />
            </Array>
          </mxGeometry>
        </mxCell>
        <mxCell id="O8RlAg53PrCzjrN2fHx7-367" value="" style="curved=1;startArrow=none;endArrow=block;exitX=0.75;exitY=0;entryX=0;entryY=0.5;rounded=0;" edge="1" parent="1" source="O8RlAg53PrCzjrN2fHx7-343" target="O8RlAg53PrCzjrN2fHx7-344">
          <mxGeometry relative="1" as="geometry">
            <Array as="points">
              <mxPoint x="867" y="2484" />
            </Array>
          </mxGeometry>
        </mxCell>
        <mxCell id="O8RlAg53PrCzjrN2fHx7-368" value="" style="curved=1;startArrow=none;endArrow=block;exitX=1;exitY=0.5;entryX=0;entryY=0.5;rounded=0;" edge="1" parent="1" source="O8RlAg53PrCzjrN2fHx7-343" target="O8RlAg53PrCzjrN2fHx7-345">
          <mxGeometry relative="1" as="geometry">
            <Array as="points" />
          </mxGeometry>
        </mxCell>
        <mxCell id="O8RlAg53PrCzjrN2fHx7-369" value="" style="curved=1;startArrow=none;endArrow=block;exitX=0.75;exitY=1.01;entryX=0;entryY=0.51;rounded=0;" edge="1" parent="1" source="O8RlAg53PrCzjrN2fHx7-343" target="O8RlAg53PrCzjrN2fHx7-346">
          <mxGeometry relative="1" as="geometry">
            <Array as="points">
              <mxPoint x="867" y="2681" />
            </Array>
          </mxGeometry>
        </mxCell>
        <mxCell id="O8RlAg53PrCzjrN2fHx7-370" value="" style="curved=1;startArrow=none;endArrow=block;exitX=0.68;exitY=1;entryX=0;entryY=0.5;rounded=0;" edge="1" parent="1" source="O8RlAg53PrCzjrN2fHx7-342" target="O8RlAg53PrCzjrN2fHx7-347">
          <mxGeometry relative="1" as="geometry">
            <Array as="points">
              <mxPoint x="607" y="2828" />
            </Array>
          </mxGeometry>
        </mxCell>
        <mxCell id="O8RlAg53PrCzjrN2fHx7-371" value="" style="curved=1;startArrow=none;endArrow=block;exitX=1;exitY=0.01;entryX=0;entryY=0.5;rounded=0;" edge="1" parent="1" source="O8RlAg53PrCzjrN2fHx7-347" target="O8RlAg53PrCzjrN2fHx7-348">
          <mxGeometry relative="1" as="geometry">
            <Array as="points">
              <mxPoint x="867" y="2779" />
            </Array>
          </mxGeometry>
        </mxCell>
        <mxCell id="O8RlAg53PrCzjrN2fHx7-372" value="" style="curved=1;startArrow=none;endArrow=block;exitX=1;exitY=1;entryX=0;entryY=0.51;rounded=0;" edge="1" parent="1" source="O8RlAg53PrCzjrN2fHx7-347" target="O8RlAg53PrCzjrN2fHx7-349">
          <mxGeometry relative="1" as="geometry">
            <Array as="points">
              <mxPoint x="867" y="2877" />
            </Array>
          </mxGeometry>
        </mxCell>
        <mxCell id="O8RlAg53PrCzjrN2fHx7-373" value="" style="curved=1;startArrow=none;endArrow=block;exitX=0.54;exitY=1;entryX=0;entryY=0.5;rounded=0;" edge="1" parent="1" source="O8RlAg53PrCzjrN2fHx7-329" target="O8RlAg53PrCzjrN2fHx7-350">
          <mxGeometry relative="1" as="geometry">
            <Array as="points">
              <mxPoint x="417" y="2976" />
            </Array>
          </mxGeometry>
        </mxCell>
        <mxCell id="O8RlAg53PrCzjrN2fHx7-374" value="" style="curved=1;startArrow=none;endArrow=block;exitX=0.83;exitY=-0.01;entryX=0;entryY=0.51;rounded=0;" edge="1" parent="1" source="O8RlAg53PrCzjrN2fHx7-350" target="O8RlAg53PrCzjrN2fHx7-351">
          <mxGeometry relative="1" as="geometry">
            <Array as="points">
              <mxPoint x="607" y="2927" />
            </Array>
          </mxGeometry>
        </mxCell>
        <mxCell id="O8RlAg53PrCzjrN2fHx7-375" value="" style="curved=1;startArrow=none;endArrow=block;exitX=0.83;exitY=1;entryX=0;entryY=0.5;rounded=0;" edge="1" parent="1" source="O8RlAg53PrCzjrN2fHx7-350" target="O8RlAg53PrCzjrN2fHx7-352">
          <mxGeometry relative="1" as="geometry">
            <Array as="points">
              <mxPoint x="607" y="3025" />
            </Array>
          </mxGeometry>
        </mxCell>
        <mxCell id="O8RlAg53PrCzjrN2fHx7-376" value="基于OJ平台的初中信息学竞赛数字资源建设与应用研究" style="whiteSpace=wrap;strokeWidth=2;" vertex="1" parent="1">
          <mxGeometry x="80" y="3678" width="254" height="84" as="geometry" />
        </mxCell>
        <mxCell id="O8RlAg53PrCzjrN2fHx7-377" value="研究准备" style="whiteSpace=wrap;strokeWidth=2;" vertex="1" parent="1">
          <mxGeometry x="400" y="3146" width="125" height="48" as="geometry" />
        </mxCell>
        <mxCell id="O8RlAg53PrCzjrN2fHx7-378" value="理论支持: 多媒体学习认知理论, 建构主义" style="whiteSpace=wrap;strokeWidth=2;" vertex="1" parent="1">
          <mxGeometry x="591" y="3070" width="210" height="84" as="geometry" />
        </mxCell>
        <mxCell id="O8RlAg53PrCzjrN2fHx7-379" value="课程分析" style="whiteSpace=wrap;strokeWidth=2;" vertex="1" parent="1">
          <mxGeometry x="634" y="3204" width="125" height="48" as="geometry" />
        </mxCell>
        <mxCell id="O8RlAg53PrCzjrN2fHx7-380" value="教学内容现状分析" style="whiteSpace=wrap;strokeWidth=2;" vertex="1" parent="1">
          <mxGeometry x="882" y="3154" width="190" height="48" as="geometry" />
        </mxCell>
        <mxCell id="O8RlAg53PrCzjrN2fHx7-381" value="数字资源需求分析" style="whiteSpace=wrap;strokeWidth=2;" vertex="1" parent="1">
          <mxGeometry x="882" y="3253" width="190" height="48" as="geometry" />
        </mxCell>
        <mxCell id="O8RlAg53PrCzjrN2fHx7-382" value="数字资源开发" style="whiteSpace=wrap;strokeWidth=2;" vertex="1" parent="1">
          <mxGeometry x="384" y="3499" width="157" height="48" as="geometry" />
        </mxCell>
        <mxCell id="O8RlAg53PrCzjrN2fHx7-383" value="设计阶段" style="whiteSpace=wrap;strokeWidth=2;" vertex="1" parent="1">
          <mxGeometry x="634" y="3400" width="125" height="48" as="geometry" />
        </mxCell>
        <mxCell id="O8RlAg53PrCzjrN2fHx7-384" value="知识模块化" style="whiteSpace=wrap;strokeWidth=2;" vertex="1" parent="1">
          <mxGeometry x="906" y="3351" width="142" height="48" as="geometry" />
        </mxCell>
        <mxCell id="O8RlAg53PrCzjrN2fHx7-385" value="OJ平台设计优化" style="whiteSpace=wrap;strokeWidth=2;" vertex="1" parent="1">
          <mxGeometry x="889" y="3450" width="175" height="48" as="geometry" />
        </mxCell>
        <mxCell id="O8RlAg53PrCzjrN2fHx7-386" value="开发阶段" style="whiteSpace=wrap;strokeWidth=2;" vertex="1" parent="1">
          <mxGeometry x="634" y="3597" width="125" height="48" as="geometry" />
        </mxCell>
        <mxCell id="O8RlAg53PrCzjrN2fHx7-387" value="题库构建" style="whiteSpace=wrap;strokeWidth=2;" vertex="1" parent="1">
          <mxGeometry x="914" y="3548" width="126" height="48" as="geometry" />
        </mxCell>
        <mxCell id="O8RlAg53PrCzjrN2fHx7-388" value="多媒体课件制作" style="whiteSpace=wrap;strokeWidth=2;" vertex="1" parent="1">
          <mxGeometry x="891" y="3646" width="172" height="48" as="geometry" />
        </mxCell>
        <mxCell id="O8RlAg53PrCzjrN2fHx7-389" value="应用与实施" style="whiteSpace=wrap;strokeWidth=2;" vertex="1" parent="1">
          <mxGeometry x="392" y="3892" width="142" height="48" as="geometry" />
        </mxCell>
        <mxCell id="O8RlAg53PrCzjrN2fHx7-390" value="教学模式" style="whiteSpace=wrap;strokeWidth=2;" vertex="1" parent="1">
          <mxGeometry x="634" y="3794" width="125" height="48" as="geometry" />
        </mxCell>
        <mxCell id="O8RlAg53PrCzjrN2fHx7-391" value="混合教学（线上+线下）" style="whiteSpace=wrap;strokeWidth=2;" vertex="1" parent="1">
          <mxGeometry x="863" y="3745" width="228" height="48" as="geometry" />
        </mxCell>
        <mxCell id="O8RlAg53PrCzjrN2fHx7-392" value="实验课程案例（排序算法）" style="whiteSpace=wrap;strokeWidth=2;" vertex="1" parent="1">
          <mxGeometry x="851" y="3843" width="252" height="48" as="geometry" />
        </mxCell>
        <mxCell id="O8RlAg53PrCzjrN2fHx7-393" value="教学实施" style="whiteSpace=wrap;strokeWidth=2;" vertex="1" parent="1">
          <mxGeometry x="633" y="3991" width="126" height="48" as="geometry" />
        </mxCell>
        <mxCell id="O8RlAg53PrCzjrN2fHx7-394" value="学生自主练习" style="whiteSpace=wrap;strokeWidth=2;" vertex="1" parent="1">
          <mxGeometry x="899" y="3942" width="156" height="48" as="geometry" />
        </mxCell>
        <mxCell id="O8RlAg53PrCzjrN2fHx7-395" value="教师反馈与指导" style="whiteSpace=wrap;strokeWidth=2;" vertex="1" parent="1">
          <mxGeometry x="890" y="4040" width="174" height="48" as="geometry" />
        </mxCell>
        <mxCell id="O8RlAg53PrCzjrN2fHx7-396" value="效果评价" style="whiteSpace=wrap;strokeWidth=2;" vertex="1" parent="1">
          <mxGeometry x="400" y="4237" width="126" height="48" as="geometry" />
        </mxCell>
        <mxCell id="O8RlAg53PrCzjrN2fHx7-397" value="数据收集" style="whiteSpace=wrap;strokeWidth=2;" vertex="1" parent="1">
          <mxGeometry x="633" y="4188" width="126" height="48" as="geometry" />
        </mxCell>
        <mxCell id="O8RlAg53PrCzjrN2fHx7-398" value="学生成绩分析" style="whiteSpace=wrap;strokeWidth=2;" vertex="1" parent="1">
          <mxGeometry x="899" y="4138" width="157" height="48" as="geometry" />
        </mxCell>
        <mxCell id="O8RlAg53PrCzjrN2fHx7-399" value="学习反馈问卷" style="whiteSpace=wrap;strokeWidth=2;" vertex="1" parent="1">
          <mxGeometry x="899" y="4237" width="157" height="48" as="geometry" />
        </mxCell>
        <mxCell id="O8RlAg53PrCzjrN2fHx7-400" value="改进建议" style="whiteSpace=wrap;strokeWidth=2;" vertex="1" parent="1">
          <mxGeometry x="634" y="4335" width="124" height="48" as="geometry" />
        </mxCell>
        <mxCell id="O8RlAg53PrCzjrN2fHx7-401" value="资源持续优化" style="whiteSpace=wrap;strokeWidth=2;" vertex="1" parent="1">
          <mxGeometry x="899" y="4335" width="157" height="48" as="geometry" />
        </mxCell>
        <mxCell id="O8RlAg53PrCzjrN2fHx7-402" value="" style="curved=1;startArrow=none;endArrow=block;exitX=0.55;exitY=0;entryX=0;entryY=0.5;rounded=0;" edge="1" parent="1" source="O8RlAg53PrCzjrN2fHx7-376" target="O8RlAg53PrCzjrN2fHx7-377">
          <mxGeometry relative="1" as="geometry">
            <Array as="points">
              <mxPoint x="359" y="3170" />
            </Array>
          </mxGeometry>
        </mxCell>
        <mxCell id="O8RlAg53PrCzjrN2fHx7-403" value="" style="curved=1;startArrow=none;endArrow=block;exitX=0.85;exitY=-0.01;entryX=0;entryY=0.5;rounded=0;" edge="1" parent="1" source="O8RlAg53PrCzjrN2fHx7-377" target="O8RlAg53PrCzjrN2fHx7-378">
          <mxGeometry relative="1" as="geometry">
            <Array as="points">
              <mxPoint x="566" y="3112" />
            </Array>
          </mxGeometry>
        </mxCell>
        <mxCell id="O8RlAg53PrCzjrN2fHx7-404" value="" style="curved=1;startArrow=none;endArrow=block;exitX=0.85;exitY=1;entryX=0;entryY=0.5;rounded=0;" edge="1" parent="1" source="O8RlAg53PrCzjrN2fHx7-377" target="O8RlAg53PrCzjrN2fHx7-379">
          <mxGeometry relative="1" as="geometry">
            <Array as="points">
              <mxPoint x="566" y="3228" />
            </Array>
          </mxGeometry>
        </mxCell>
        <mxCell id="O8RlAg53PrCzjrN2fHx7-405" value="" style="curved=1;startArrow=none;endArrow=block;exitX=1;exitY=0;entryX=0;entryY=0.51;rounded=0;" edge="1" parent="1" source="O8RlAg53PrCzjrN2fHx7-379" target="O8RlAg53PrCzjrN2fHx7-380">
          <mxGeometry relative="1" as="geometry">
            <Array as="points">
              <mxPoint x="826" y="3179" />
            </Array>
          </mxGeometry>
        </mxCell>
        <mxCell id="O8RlAg53PrCzjrN2fHx7-406" value="" style="curved=1;startArrow=none;endArrow=block;exitX=1;exitY=0.99;entryX=0;entryY=0.5;rounded=0;" edge="1" parent="1" source="O8RlAg53PrCzjrN2fHx7-379" target="O8RlAg53PrCzjrN2fHx7-381">
          <mxGeometry relative="1" as="geometry">
            <Array as="points">
              <mxPoint x="826" y="3277" />
            </Array>
          </mxGeometry>
        </mxCell>
        <mxCell id="O8RlAg53PrCzjrN2fHx7-407" value="" style="curved=1;startArrow=none;endArrow=block;exitX=0.63;exitY=0;entryX=0;entryY=0.5;rounded=0;" edge="1" parent="1" source="O8RlAg53PrCzjrN2fHx7-376" target="O8RlAg53PrCzjrN2fHx7-382">
          <mxGeometry relative="1" as="geometry">
            <Array as="points">
              <mxPoint x="359" y="3523" />
            </Array>
          </mxGeometry>
        </mxCell>
        <mxCell id="O8RlAg53PrCzjrN2fHx7-408" value="" style="curved=1;startArrow=none;endArrow=block;exitX=0.66;exitY=0;entryX=0;entryY=0.51;rounded=0;" edge="1" parent="1" source="O8RlAg53PrCzjrN2fHx7-382" target="O8RlAg53PrCzjrN2fHx7-383">
          <mxGeometry relative="1" as="geometry">
            <Array as="points">
              <mxPoint x="566" y="3425" />
            </Array>
          </mxGeometry>
        </mxCell>
        <mxCell id="O8RlAg53PrCzjrN2fHx7-409" value="" style="curved=1;startArrow=none;endArrow=block;exitX=1;exitY=0.02;entryX=0;entryY=0.51;rounded=0;" edge="1" parent="1" source="O8RlAg53PrCzjrN2fHx7-383" target="O8RlAg53PrCzjrN2fHx7-384">
          <mxGeometry relative="1" as="geometry">
            <Array as="points">
              <mxPoint x="826" y="3375" />
            </Array>
          </mxGeometry>
        </mxCell>
        <mxCell id="O8RlAg53PrCzjrN2fHx7-410" value="" style="curved=1;startArrow=none;endArrow=block;exitX=1;exitY=1;entryX=0;entryY=0.5;rounded=0;" edge="1" parent="1" source="O8RlAg53PrCzjrN2fHx7-383" target="O8RlAg53PrCzjrN2fHx7-385">
          <mxGeometry relative="1" as="geometry">
            <Array as="points">
              <mxPoint x="826" y="3474" />
            </Array>
          </mxGeometry>
        </mxCell>
        <mxCell id="O8RlAg53PrCzjrN2fHx7-411" value="" style="curved=1;startArrow=none;endArrow=block;exitX=0.66;exitY=1;entryX=0;entryY=0.51;rounded=0;" edge="1" parent="1" source="O8RlAg53PrCzjrN2fHx7-382" target="O8RlAg53PrCzjrN2fHx7-386">
          <mxGeometry relative="1" as="geometry">
            <Array as="points">
              <mxPoint x="566" y="3621" />
            </Array>
          </mxGeometry>
        </mxCell>
        <mxCell id="O8RlAg53PrCzjrN2fHx7-412" value="" style="curved=1;startArrow=none;endArrow=block;exitX=1;exitY=0.02;entryX=0;entryY=0.5;rounded=0;" edge="1" parent="1" source="O8RlAg53PrCzjrN2fHx7-386" target="O8RlAg53PrCzjrN2fHx7-387">
          <mxGeometry relative="1" as="geometry">
            <Array as="points">
              <mxPoint x="826" y="3572" />
            </Array>
          </mxGeometry>
        </mxCell>
        <mxCell id="O8RlAg53PrCzjrN2fHx7-413" value="" style="curved=1;startArrow=none;endArrow=block;exitX=1;exitY=1;entryX=0;entryY=0.51;rounded=0;" edge="1" parent="1" source="O8RlAg53PrCzjrN2fHx7-386" target="O8RlAg53PrCzjrN2fHx7-388">
          <mxGeometry relative="1" as="geometry">
            <Array as="points">
              <mxPoint x="826" y="3671" />
            </Array>
          </mxGeometry>
        </mxCell>
        <mxCell id="O8RlAg53PrCzjrN2fHx7-414" value="" style="curved=1;startArrow=none;endArrow=block;exitX=0.63;exitY=1;entryX=0;entryY=0.51;rounded=0;" edge="1" parent="1" source="O8RlAg53PrCzjrN2fHx7-376" target="O8RlAg53PrCzjrN2fHx7-389">
          <mxGeometry relative="1" as="geometry">
            <Array as="points">
              <mxPoint x="359" y="3917" />
            </Array>
          </mxGeometry>
        </mxCell>
        <mxCell id="O8RlAg53PrCzjrN2fHx7-415" value="" style="curved=1;startArrow=none;endArrow=block;exitX=0.68;exitY=0.01;entryX=0;entryY=0.5;rounded=0;" edge="1" parent="1" source="O8RlAg53PrCzjrN2fHx7-389" target="O8RlAg53PrCzjrN2fHx7-390">
          <mxGeometry relative="1" as="geometry">
            <Array as="points">
              <mxPoint x="566" y="3818" />
            </Array>
          </mxGeometry>
        </mxCell>
        <mxCell id="O8RlAg53PrCzjrN2fHx7-416" value="" style="curved=1;startArrow=none;endArrow=block;exitX=1;exitY=0.01;entryX=0;entryY=0.5;rounded=0;" edge="1" parent="1" source="O8RlAg53PrCzjrN2fHx7-390" target="O8RlAg53PrCzjrN2fHx7-391">
          <mxGeometry relative="1" as="geometry">
            <Array as="points">
              <mxPoint x="826" y="3769" />
            </Array>
          </mxGeometry>
        </mxCell>
        <mxCell id="O8RlAg53PrCzjrN2fHx7-417" value="" style="curved=1;startArrow=none;endArrow=block;exitX=1;exitY=1;entryX=0;entryY=0.51;rounded=0;" edge="1" parent="1" source="O8RlAg53PrCzjrN2fHx7-390" target="O8RlAg53PrCzjrN2fHx7-392">
          <mxGeometry relative="1" as="geometry">
            <Array as="points">
              <mxPoint x="826" y="3867" />
            </Array>
          </mxGeometry>
        </mxCell>
        <mxCell id="O8RlAg53PrCzjrN2fHx7-418" value="" style="curved=1;startArrow=none;endArrow=block;exitX=0.68;exitY=1.02;entryX=0;entryY=0.5;rounded=0;" edge="1" parent="1" source="O8RlAg53PrCzjrN2fHx7-389" target="O8RlAg53PrCzjrN2fHx7-393">
          <mxGeometry relative="1" as="geometry">
            <Array as="points">
              <mxPoint x="566" y="4015" />
            </Array>
          </mxGeometry>
        </mxCell>
        <mxCell id="O8RlAg53PrCzjrN2fHx7-419" value="" style="curved=1;startArrow=none;endArrow=block;exitX=1;exitY=0;entryX=0;entryY=0.5;rounded=0;" edge="1" parent="1" source="O8RlAg53PrCzjrN2fHx7-393" target="O8RlAg53PrCzjrN2fHx7-394">
          <mxGeometry relative="1" as="geometry">
            <Array as="points">
              <mxPoint x="826" y="3966" />
            </Array>
          </mxGeometry>
        </mxCell>
        <mxCell id="O8RlAg53PrCzjrN2fHx7-420" value="" style="curved=1;startArrow=none;endArrow=block;exitX=1;exitY=1;entryX=0;entryY=0.5;rounded=0;" edge="1" parent="1" source="O8RlAg53PrCzjrN2fHx7-393" target="O8RlAg53PrCzjrN2fHx7-395">
          <mxGeometry relative="1" as="geometry">
            <Array as="points">
              <mxPoint x="826" y="4064" />
            </Array>
          </mxGeometry>
        </mxCell>
        <mxCell id="O8RlAg53PrCzjrN2fHx7-421" value="" style="curved=1;startArrow=none;endArrow=block;exitX=0.55;exitY=1;entryX=0;entryY=0.5;rounded=0;" edge="1" parent="1" source="O8RlAg53PrCzjrN2fHx7-376" target="O8RlAg53PrCzjrN2fHx7-396">
          <mxGeometry relative="1" as="geometry">
            <Array as="points">
              <mxPoint x="359" y="4261" />
            </Array>
          </mxGeometry>
        </mxCell>
        <mxCell id="O8RlAg53PrCzjrN2fHx7-422" value="" style="curved=1;startArrow=none;endArrow=block;exitX=0.9;exitY=0;entryX=0;entryY=0.5;rounded=0;" edge="1" parent="1" source="O8RlAg53PrCzjrN2fHx7-396" target="O8RlAg53PrCzjrN2fHx7-397">
          <mxGeometry relative="1" as="geometry">
            <Array as="points">
              <mxPoint x="566" y="4212" />
            </Array>
          </mxGeometry>
        </mxCell>
        <mxCell id="O8RlAg53PrCzjrN2fHx7-423" value="" style="curved=1;startArrow=none;endArrow=block;exitX=1;exitY=0;entryX=0;entryY=0.51;rounded=0;" edge="1" parent="1" source="O8RlAg53PrCzjrN2fHx7-397" target="O8RlAg53PrCzjrN2fHx7-398">
          <mxGeometry relative="1" as="geometry">
            <Array as="points">
              <mxPoint x="826" y="4163" />
            </Array>
          </mxGeometry>
        </mxCell>
        <mxCell id="O8RlAg53PrCzjrN2fHx7-424" value="" style="curved=1;startArrow=none;endArrow=block;exitX=1;exitY=0.99;entryX=0;entryY=0.5;rounded=0;" edge="1" parent="1" source="O8RlAg53PrCzjrN2fHx7-397" target="O8RlAg53PrCzjrN2fHx7-399">
          <mxGeometry relative="1" as="geometry">
            <Array as="points">
              <mxPoint x="826" y="4261" />
            </Array>
          </mxGeometry>
        </mxCell>
        <mxCell id="O8RlAg53PrCzjrN2fHx7-425" value="" style="curved=1;startArrow=none;endArrow=block;exitX=0.7;exitY=1;entryX=0;entryY=0.51;rounded=0;" edge="1" parent="1" source="O8RlAg53PrCzjrN2fHx7-396" target="O8RlAg53PrCzjrN2fHx7-400">
          <mxGeometry relative="1" as="geometry">
            <Array as="points">
              <mxPoint x="566" y="4359" />
            </Array>
          </mxGeometry>
        </mxCell>
        <mxCell id="O8RlAg53PrCzjrN2fHx7-426" value="" style="curved=1;startArrow=none;endArrow=block;exitX=1;exitY=0.51;entryX=0;entryY=0.51;rounded=0;" edge="1" parent="1" source="O8RlAg53PrCzjrN2fHx7-400" target="O8RlAg53PrCzjrN2fHx7-401">
          <mxGeometry relative="1" as="geometry">
            <Array as="points" />
          </mxGeometry>
        </mxCell>
        <mxCell id="O8RlAg53PrCzjrN2fHx7-427" value="基于PBL的3D教学在中职课程的应用研究" style="whiteSpace=wrap;strokeWidth=2;" vertex="1" parent="1">
          <mxGeometry x="50" y="5196" width="249" height="66" as="geometry" />
        </mxCell>
        <mxCell id="O8RlAg53PrCzjrN2fHx7-428" value="准备阶段" style="whiteSpace=wrap;strokeWidth=2;" vertex="1" parent="1">
          <mxGeometry x="373" y="4462" width="125" height="48" as="geometry" />
        </mxCell>
        <mxCell id="O8RlAg53PrCzjrN2fHx7-429" value="理论基础: PBL教学法, 认知负荷理论" style="whiteSpace=wrap;strokeWidth=2;" vertex="1" parent="1">
          <mxGeometry x="573" y="4400" width="215" height="66" as="geometry" />
        </mxCell>
        <mxCell id="O8RlAg53PrCzjrN2fHx7-430" value="需求分析" style="whiteSpace=wrap;strokeWidth=2;" vertex="1" parent="1">
          <mxGeometry x="618" y="4516" width="125" height="48" as="geometry" />
        </mxCell>
        <mxCell id="O8RlAg53PrCzjrN2fHx7-431" value="学生学习兴趣与现状" style="whiteSpace=wrap;strokeWidth=2;" vertex="1" parent="1">
          <mxGeometry x="862" y="4467" width="204" height="48" as="geometry" />
        </mxCell>
        <mxCell id="O8RlAg53PrCzjrN2fHx7-432" value="教学设备与课程条件" style="whiteSpace=wrap;strokeWidth=2;" vertex="1" parent="1">
          <mxGeometry x="861" y="4565" width="206" height="48" as="geometry" />
        </mxCell>
        <mxCell id="O8RlAg53PrCzjrN2fHx7-433" value="资源设计与开发" style="whiteSpace=wrap;strokeWidth=2;" vertex="1" parent="1">
          <mxGeometry x="350" y="4910" width="172" height="48" as="geometry" />
        </mxCell>
        <mxCell id="O8RlAg53PrCzjrN2fHx7-434" value="设计阶段" style="whiteSpace=wrap;strokeWidth=2;" vertex="1" parent="1">
          <mxGeometry x="618" y="4762" width="125" height="48" as="geometry" />
        </mxCell>
        <mxCell id="O8RlAg53PrCzjrN2fHx7-435" value="教师与学生需求调研" style="whiteSpace=wrap;strokeWidth=2;" vertex="1" parent="1">
          <mxGeometry x="862" y="4664" width="205" height="48" as="geometry" />
        </mxCell>
        <mxCell id="O8RlAg53PrCzjrN2fHx7-436" value="课程内容分解" style="whiteSpace=wrap;strokeWidth=2;" vertex="1" parent="1">
          <mxGeometry x="886" y="4762" width="156" height="48" as="geometry" />
        </mxCell>
        <mxCell id="O8RlAg53PrCzjrN2fHx7-437" value="3D资源类型确定" style="whiteSpace=wrap;strokeWidth=2;" vertex="1" parent="1">
          <mxGeometry x="877" y="4860" width="174" height="48" as="geometry" />
        </mxCell>
        <mxCell id="O8RlAg53PrCzjrN2fHx7-438" value="开发阶段" style="whiteSpace=wrap;strokeWidth=2;" vertex="1" parent="1">
          <mxGeometry x="618" y="5057" width="125" height="48" as="geometry" />
        </mxCell>
        <mxCell id="O8RlAg53PrCzjrN2fHx7-439" value="3D课件与动画制作" style="whiteSpace=wrap;strokeWidth=2;" vertex="1" parent="1">
          <mxGeometry x="869" y="4959" width="190" height="48" as="geometry" />
        </mxCell>
        <mxCell id="O8RlAg53PrCzjrN2fHx7-440" value="虚拟仿真场景构建" style="whiteSpace=wrap;strokeWidth=2;" vertex="1" parent="1">
          <mxGeometry x="869" y="5057" width="190" height="48" as="geometry" />
        </mxCell>
        <mxCell id="O8RlAg53PrCzjrN2fHx7-441" value="资源测试与优化" style="whiteSpace=wrap;strokeWidth=2;" vertex="1" parent="1">
          <mxGeometry x="878" y="5156" width="173" height="48" as="geometry" />
        </mxCell>
        <mxCell id="O8RlAg53PrCzjrN2fHx7-442" value="教学实施" style="whiteSpace=wrap;strokeWidth=2;" vertex="1" parent="1">
          <mxGeometry x="373" y="5500" width="126" height="48" as="geometry" />
        </mxCell>
        <mxCell id="O8RlAg53PrCzjrN2fHx7-443" value="实验教学" style="whiteSpace=wrap;strokeWidth=2;" vertex="1" parent="1">
          <mxGeometry x="618" y="5352" width="124" height="48" as="geometry" />
        </mxCell>
        <mxCell id="O8RlAg53PrCzjrN2fHx7-444" value="第1阶段: 项目引入" style="whiteSpace=wrap;strokeWidth=2;" vertex="1" parent="1">
          <mxGeometry x="868" y="5254" width="192" height="48" as="geometry" />
        </mxCell>
        <mxCell id="O8RlAg53PrCzjrN2fHx7-445" value="第2阶段: 问题驱动式学习" style="whiteSpace=wrap;strokeWidth=2;" vertex="1" parent="1">
          <mxGeometry x="844" y="5352" width="240" height="48" as="geometry" />
        </mxCell>
        <mxCell id="O8RlAg53PrCzjrN2fHx7-446" value="第3阶段: 任务完成与总结" style="whiteSpace=wrap;strokeWidth=2;" vertex="1" parent="1">
          <mxGeometry x="844" y="5451" width="240" height="48" as="geometry" />
        </mxCell>
        <mxCell id="O8RlAg53PrCzjrN2fHx7-447" value="教学案例" style="whiteSpace=wrap;strokeWidth=2;" vertex="1" parent="1">
          <mxGeometry x="618" y="5598" width="125" height="48" as="geometry" />
        </mxCell>
        <mxCell id="O8RlAg53PrCzjrN2fHx7-448" value="计算机组装与维护项目案例" style="whiteSpace=wrap;strokeWidth=2;" vertex="1" parent="1">
          <mxGeometry x="838" y="5549" width="252" height="48" as="geometry" />
        </mxCell>
        <mxCell id="O8RlAg53PrCzjrN2fHx7-449" value="3D资源辅助讲解与实践" style="whiteSpace=wrap;strokeWidth=2;" vertex="1" parent="1">
          <mxGeometry x="853" y="5648" width="223" height="48" as="geometry" />
        </mxCell>
        <mxCell id="O8RlAg53PrCzjrN2fHx7-450" value="效果评价与优化" style="whiteSpace=wrap;strokeWidth=2;" vertex="1" parent="1">
          <mxGeometry x="349" y="5844" width="174" height="48" as="geometry" />
        </mxCell>
        <mxCell id="O8RlAg53PrCzjrN2fHx7-451" value="数据分析" style="whiteSpace=wrap;strokeWidth=2;" vertex="1" parent="1">
          <mxGeometry x="618" y="5795" width="126" height="48" as="geometry" />
        </mxCell>
        <mxCell id="O8RlAg53PrCzjrN2fHx7-452" value="学生成绩与操作能力对比" style="whiteSpace=wrap;strokeWidth=2;" vertex="1" parent="1">
          <mxGeometry x="846" y="5746" width="236" height="48" as="geometry" />
        </mxCell>
        <mxCell id="O8RlAg53PrCzjrN2fHx7-453" value="问卷调查结果" style="whiteSpace=wrap;strokeWidth=2;" vertex="1" parent="1">
          <mxGeometry x="886" y="5844" width="157" height="48" as="geometry" />
        </mxCell>
        <mxCell id="O8RlAg53PrCzjrN2fHx7-454" value="资源与教学模式改进" style="whiteSpace=wrap;strokeWidth=2;" vertex="1" parent="1">
          <mxGeometry x="578" y="5894" width="204" height="48" as="geometry" />
        </mxCell>
        <mxCell id="O8RlAg53PrCzjrN2fHx7-455" value="" style="curved=1;startArrow=none;endArrow=block;exitX=0.53;exitY=0;entryX=0;entryY=0.51;rounded=0;" edge="1" parent="1" source="O8RlAg53PrCzjrN2fHx7-427" target="O8RlAg53PrCzjrN2fHx7-428">
          <mxGeometry relative="1" as="geometry">
            <Array as="points">
              <mxPoint x="324" y="4487" />
            </Array>
          </mxGeometry>
        </mxCell>
        <mxCell id="O8RlAg53PrCzjrN2fHx7-456" value="" style="curved=1;startArrow=none;endArrow=block;exitX=0.91;exitY=0.01;entryX=0;entryY=0.5;rounded=0;" edge="1" parent="1" source="O8RlAg53PrCzjrN2fHx7-428" target="O8RlAg53PrCzjrN2fHx7-429">
          <mxGeometry relative="1" as="geometry">
            <Array as="points">
              <mxPoint x="548" y="4433" />
            </Array>
          </mxGeometry>
        </mxCell>
        <mxCell id="O8RlAg53PrCzjrN2fHx7-457" value="" style="curved=1;startArrow=none;endArrow=block;exitX=0.91;exitY=1.02;entryX=0;entryY=0.5;rounded=0;" edge="1" parent="1" source="O8RlAg53PrCzjrN2fHx7-428" target="O8RlAg53PrCzjrN2fHx7-430">
          <mxGeometry relative="1" as="geometry">
            <Array as="points">
              <mxPoint x="548" y="4540" />
            </Array>
          </mxGeometry>
        </mxCell>
        <mxCell id="O8RlAg53PrCzjrN2fHx7-458" value="" style="curved=1;startArrow=none;endArrow=block;exitX=1;exitY=0.02;entryX=0;entryY=0.5;rounded=0;" edge="1" parent="1" source="O8RlAg53PrCzjrN2fHx7-430" target="O8RlAg53PrCzjrN2fHx7-431">
          <mxGeometry relative="1" as="geometry">
            <Array as="points">
              <mxPoint x="813" y="4491" />
            </Array>
          </mxGeometry>
        </mxCell>
        <mxCell id="O8RlAg53PrCzjrN2fHx7-459" value="" style="curved=1;startArrow=none;endArrow=block;exitX=1;exitY=0.99;entryX=0;entryY=0.51;rounded=0;" edge="1" parent="1" source="O8RlAg53PrCzjrN2fHx7-430" target="O8RlAg53PrCzjrN2fHx7-432">
          <mxGeometry relative="1" as="geometry">
            <Array as="points">
              <mxPoint x="813" y="4589" />
            </Array>
          </mxGeometry>
        </mxCell>
        <mxCell id="O8RlAg53PrCzjrN2fHx7-460" value="" style="curved=1;startArrow=none;endArrow=block;exitX=0.57;exitY=0;entryX=0;entryY=0.5;rounded=0;" edge="1" parent="1" source="O8RlAg53PrCzjrN2fHx7-427" target="O8RlAg53PrCzjrN2fHx7-433">
          <mxGeometry relative="1" as="geometry">
            <Array as="points">
              <mxPoint x="324" y="4934" />
            </Array>
          </mxGeometry>
        </mxCell>
        <mxCell id="O8RlAg53PrCzjrN2fHx7-461" value="" style="curved=1;startArrow=none;endArrow=block;exitX=0.61;exitY=-0.01;entryX=0;entryY=0.5;rounded=0;" edge="1" parent="1" source="O8RlAg53PrCzjrN2fHx7-433" target="O8RlAg53PrCzjrN2fHx7-434">
          <mxGeometry relative="1" as="geometry">
            <Array as="points">
              <mxPoint x="548" y="4786" />
            </Array>
          </mxGeometry>
        </mxCell>
        <mxCell id="O8RlAg53PrCzjrN2fHx7-462" value="" style="curved=1;startArrow=none;endArrow=block;exitX=0.76;exitY=0;entryX=0;entryY=0.5;rounded=0;" edge="1" parent="1" source="O8RlAg53PrCzjrN2fHx7-434" target="O8RlAg53PrCzjrN2fHx7-435">
          <mxGeometry relative="1" as="geometry">
            <Array as="points">
              <mxPoint x="813" y="4688" />
            </Array>
          </mxGeometry>
        </mxCell>
        <mxCell id="O8RlAg53PrCzjrN2fHx7-463" value="" style="curved=1;startArrow=none;endArrow=block;exitX=1;exitY=0.5;entryX=0;entryY=0.5;rounded=0;" edge="1" parent="1" source="O8RlAg53PrCzjrN2fHx7-434" target="O8RlAg53PrCzjrN2fHx7-436">
          <mxGeometry relative="1" as="geometry">
            <Array as="points" />
          </mxGeometry>
        </mxCell>
        <mxCell id="O8RlAg53PrCzjrN2fHx7-464" value="" style="curved=1;startArrow=none;endArrow=block;exitX=0.76;exitY=1.01;entryX=0;entryY=0.51;rounded=0;" edge="1" parent="1" source="O8RlAg53PrCzjrN2fHx7-434" target="O8RlAg53PrCzjrN2fHx7-437">
          <mxGeometry relative="1" as="geometry">
            <Array as="points">
              <mxPoint x="813" y="4885" />
            </Array>
          </mxGeometry>
        </mxCell>
        <mxCell id="O8RlAg53PrCzjrN2fHx7-465" value="" style="curved=1;startArrow=none;endArrow=block;exitX=0.61;exitY=1;entryX=0;entryY=0.51;rounded=0;" edge="1" parent="1" source="O8RlAg53PrCzjrN2fHx7-433" target="O8RlAg53PrCzjrN2fHx7-438">
          <mxGeometry relative="1" as="geometry">
            <Array as="points">
              <mxPoint x="548" y="5081" />
            </Array>
          </mxGeometry>
        </mxCell>
        <mxCell id="O8RlAg53PrCzjrN2fHx7-466" value="" style="curved=1;startArrow=none;endArrow=block;exitX=0.76;exitY=0;entryX=0;entryY=0.5;rounded=0;" edge="1" parent="1" source="O8RlAg53PrCzjrN2fHx7-438" target="O8RlAg53PrCzjrN2fHx7-439">
          <mxGeometry relative="1" as="geometry">
            <Array as="points">
              <mxPoint x="813" y="4983" />
            </Array>
          </mxGeometry>
        </mxCell>
        <mxCell id="O8RlAg53PrCzjrN2fHx7-467" value="" style="curved=1;startArrow=none;endArrow=block;exitX=1;exitY=0.51;entryX=0;entryY=0.51;rounded=0;" edge="1" parent="1" source="O8RlAg53PrCzjrN2fHx7-438" target="O8RlAg53PrCzjrN2fHx7-440">
          <mxGeometry relative="1" as="geometry">
            <Array as="points" />
          </mxGeometry>
        </mxCell>
        <mxCell id="O8RlAg53PrCzjrN2fHx7-468" value="" style="curved=1;startArrow=none;endArrow=block;exitX=0.76;exitY=1.01;entryX=0;entryY=0.5;rounded=0;" edge="1" parent="1" source="O8RlAg53PrCzjrN2fHx7-438" target="O8RlAg53PrCzjrN2fHx7-441">
          <mxGeometry relative="1" as="geometry">
            <Array as="points">
              <mxPoint x="813" y="5180" />
            </Array>
          </mxGeometry>
        </mxCell>
        <mxCell id="O8RlAg53PrCzjrN2fHx7-469" value="" style="curved=1;startArrow=none;endArrow=block;exitX=0.57;exitY=1;entryX=0;entryY=0.5;rounded=0;" edge="1" parent="1" source="O8RlAg53PrCzjrN2fHx7-427" target="O8RlAg53PrCzjrN2fHx7-442">
          <mxGeometry relative="1" as="geometry">
            <Array as="points">
              <mxPoint x="324" y="5524" />
            </Array>
          </mxGeometry>
        </mxCell>
        <mxCell id="O8RlAg53PrCzjrN2fHx7-470" value="" style="curved=1;startArrow=none;endArrow=block;exitX=0.64;exitY=0;entryX=0;entryY=0.51;rounded=0;" edge="1" parent="1" source="O8RlAg53PrCzjrN2fHx7-442" target="O8RlAg53PrCzjrN2fHx7-443">
          <mxGeometry relative="1" as="geometry">
            <Array as="points">
              <mxPoint x="548" y="5377" />
            </Array>
          </mxGeometry>
        </mxCell>
        <mxCell id="O8RlAg53PrCzjrN2fHx7-471" value="" style="curved=1;startArrow=none;endArrow=block;exitX=0.77;exitY=0.01;entryX=0;entryY=0.5;rounded=0;" edge="1" parent="1" source="O8RlAg53PrCzjrN2fHx7-443" target="O8RlAg53PrCzjrN2fHx7-444">
          <mxGeometry relative="1" as="geometry">
            <Array as="points">
              <mxPoint x="813" y="5278" />
            </Array>
          </mxGeometry>
        </mxCell>
        <mxCell id="O8RlAg53PrCzjrN2fHx7-472" value="" style="curved=1;startArrow=none;endArrow=block;exitX=1;exitY=0.51;entryX=0;entryY=0.51;rounded=0;" edge="1" parent="1" source="O8RlAg53PrCzjrN2fHx7-443" target="O8RlAg53PrCzjrN2fHx7-445">
          <mxGeometry relative="1" as="geometry">
            <Array as="points" />
          </mxGeometry>
        </mxCell>
        <mxCell id="O8RlAg53PrCzjrN2fHx7-473" value="" style="curved=1;startArrow=none;endArrow=block;exitX=0.77;exitY=1.02;entryX=0;entryY=0.5;rounded=0;" edge="1" parent="1" source="O8RlAg53PrCzjrN2fHx7-443" target="O8RlAg53PrCzjrN2fHx7-446">
          <mxGeometry relative="1" as="geometry">
            <Array as="points">
              <mxPoint x="813" y="5475" />
            </Array>
          </mxGeometry>
        </mxCell>
        <mxCell id="O8RlAg53PrCzjrN2fHx7-474" value="" style="curved=1;startArrow=none;endArrow=block;exitX=0.72;exitY=1.01;entryX=0;entryY=0.51;rounded=0;" edge="1" parent="1" source="O8RlAg53PrCzjrN2fHx7-442" target="O8RlAg53PrCzjrN2fHx7-447">
          <mxGeometry relative="1" as="geometry">
            <Array as="points">
              <mxPoint x="548" y="5623" />
            </Array>
          </mxGeometry>
        </mxCell>
        <mxCell id="O8RlAg53PrCzjrN2fHx7-475" value="" style="curved=1;startArrow=none;endArrow=block;exitX=1;exitY=0.03;entryX=0;entryY=0.51;rounded=0;" edge="1" parent="1" source="O8RlAg53PrCzjrN2fHx7-447" target="O8RlAg53PrCzjrN2fHx7-448">
          <mxGeometry relative="1" as="geometry">
            <Array as="points">
              <mxPoint x="813" y="5573" />
            </Array>
          </mxGeometry>
        </mxCell>
        <mxCell id="O8RlAg53PrCzjrN2fHx7-476" value="" style="curved=1;startArrow=none;endArrow=block;exitX=1;exitY=0.99;entryX=0;entryY=0.5;rounded=0;" edge="1" parent="1" source="O8RlAg53PrCzjrN2fHx7-447" target="O8RlAg53PrCzjrN2fHx7-449">
          <mxGeometry relative="1" as="geometry">
            <Array as="points">
              <mxPoint x="813" y="5672" />
            </Array>
          </mxGeometry>
        </mxCell>
        <mxCell id="O8RlAg53PrCzjrN2fHx7-477" value="" style="curved=1;startArrow=none;endArrow=block;exitX=0.53;exitY=1;entryX=0;entryY=0.51;rounded=0;" edge="1" parent="1" source="O8RlAg53PrCzjrN2fHx7-427" target="O8RlAg53PrCzjrN2fHx7-450">
          <mxGeometry relative="1" as="geometry">
            <Array as="points">
              <mxPoint x="324" y="5869" />
            </Array>
          </mxGeometry>
        </mxCell>
        <mxCell id="O8RlAg53PrCzjrN2fHx7-478" value="" style="curved=1;startArrow=none;endArrow=block;exitX=0.82;exitY=0.01;entryX=0;entryY=0.51;rounded=0;" edge="1" parent="1" source="O8RlAg53PrCzjrN2fHx7-450" target="O8RlAg53PrCzjrN2fHx7-451">
          <mxGeometry relative="1" as="geometry">
            <Array as="points">
              <mxPoint x="548" y="5819" />
            </Array>
          </mxGeometry>
        </mxCell>
        <mxCell id="O8RlAg53PrCzjrN2fHx7-479" value="" style="curved=1;startArrow=none;endArrow=block;exitX=0.99;exitY=0.02;entryX=0;entryY=0.5;rounded=0;" edge="1" parent="1" source="O8RlAg53PrCzjrN2fHx7-451" target="O8RlAg53PrCzjrN2fHx7-452">
          <mxGeometry relative="1" as="geometry">
            <Array as="points">
              <mxPoint x="813" y="5770" />
            </Array>
          </mxGeometry>
        </mxCell>
        <mxCell id="O8RlAg53PrCzjrN2fHx7-480" value="" style="curved=1;startArrow=none;endArrow=block;exitX=0.99;exitY=0.99;entryX=0;entryY=0.51;rounded=0;" edge="1" parent="1" source="O8RlAg53PrCzjrN2fHx7-451" target="O8RlAg53PrCzjrN2fHx7-453">
          <mxGeometry relative="1" as="geometry">
            <Array as="points">
              <mxPoint x="813" y="5869" />
            </Array>
          </mxGeometry>
        </mxCell>
        <mxCell id="O8RlAg53PrCzjrN2fHx7-481" value="" style="curved=1;startArrow=none;endArrow=block;exitX=0.82;exitY=1.02;entryX=0;entryY=0.5;rounded=0;" edge="1" parent="1" source="O8RlAg53PrCzjrN2fHx7-450" target="O8RlAg53PrCzjrN2fHx7-454">
          <mxGeometry relative="1" as="geometry">
            <Array as="points">
              <mxPoint x="548" y="5918" />
            </Array>
          </mxGeometry>
        </mxCell>
        <mxCell id="O8RlAg53PrCzjrN2fHx7-482" value="论文题目：生成式人工智能赋能SPOC教学模式应用新范式" style="whiteSpace=wrap;strokeWidth=2;" vertex="1" parent="1">
          <mxGeometry x="20" y="6680" width="257" height="84" as="geometry" />
        </mxCell>
        <mxCell id="O8RlAg53PrCzjrN2fHx7-483" value="课前阶段" style="whiteSpace=wrap;strokeWidth=2;" vertex="1" parent="1">
          <mxGeometry x="327" y="6206" width="125" height="48" as="geometry" />
        </mxCell>
        <mxCell id="O8RlAg53PrCzjrN2fHx7-484" value="教师备课" style="whiteSpace=wrap;strokeWidth=2;" vertex="1" parent="1">
          <mxGeometry x="502" y="6058" width="126" height="48" as="geometry" />
        </mxCell>
        <mxCell id="O8RlAg53PrCzjrN2fHx7-485" value="生成教学计划" style="whiteSpace=wrap;strokeWidth=2;" vertex="1" parent="1">
          <mxGeometry x="687" y="5960" width="156" height="48" as="geometry" />
        </mxCell>
        <mxCell id="O8RlAg53PrCzjrN2fHx7-486" value="设计测试题目" style="whiteSpace=wrap;strokeWidth=2;" vertex="1" parent="1">
          <mxGeometry x="687" y="6058" width="156" height="48" as="geometry" />
        </mxCell>
        <mxCell id="O8RlAg53PrCzjrN2fHx7-487" value="创建学习资源" style="whiteSpace=wrap;strokeWidth=2;" vertex="1" parent="1">
          <mxGeometry x="687" y="6157" width="157" height="48" as="geometry" />
        </mxCell>
        <mxCell id="O8RlAg53PrCzjrN2fHx7-488" value="学生准备" style="whiteSpace=wrap;strokeWidth=2;" vertex="1" parent="1">
          <mxGeometry x="502" y="6354" width="125" height="48" as="geometry" />
        </mxCell>
        <mxCell id="O8RlAg53PrCzjrN2fHx7-489" value="完成学习任务单" style="whiteSpace=wrap;strokeWidth=2;" vertex="1" parent="1">
          <mxGeometry x="679" y="6255" width="172" height="48" as="geometry" />
        </mxCell>
        <mxCell id="O8RlAg53PrCzjrN2fHx7-490" value="生成学习计划" style="whiteSpace=wrap;strokeWidth=2;" vertex="1" parent="1">
          <mxGeometry x="687" y="6354" width="156" height="48" as="geometry" />
        </mxCell>
        <mxCell id="O8RlAg53PrCzjrN2fHx7-491" value="识别重难点问题" style="whiteSpace=wrap;strokeWidth=2;" vertex="1" parent="1">
          <mxGeometry x="679" y="6452" width="173" height="48" as="geometry" />
        </mxCell>
        <mxCell id="O8RlAg53PrCzjrN2fHx7-492" value="课中阶段" style="whiteSpace=wrap;strokeWidth=2;" vertex="1" parent="1">
          <mxGeometry x="327" y="6698" width="125" height="48" as="geometry" />
        </mxCell>
        <mxCell id="O8RlAg53PrCzjrN2fHx7-493" value="教师引导" style="whiteSpace=wrap;strokeWidth=2;" vertex="1" parent="1">
          <mxGeometry x="502" y="6600" width="126" height="48" as="geometry" />
        </mxCell>
        <mxCell id="O8RlAg53PrCzjrN2fHx7-494" value="设计课堂活动" style="whiteSpace=wrap;strokeWidth=2;" vertex="1" parent="1">
          <mxGeometry x="687" y="6550" width="156" height="48" as="geometry" />
        </mxCell>
        <mxCell id="O8RlAg53PrCzjrN2fHx7-495" value="进行知识点讲解" style="whiteSpace=wrap;strokeWidth=2;" vertex="1" parent="1">
          <mxGeometry x="679" y="6649" width="173" height="48" as="geometry" />
        </mxCell>
        <mxCell id="O8RlAg53PrCzjrN2fHx7-496" value="学生学习" style="whiteSpace=wrap;strokeWidth=2;" vertex="1" parent="1">
          <mxGeometry x="503" y="6846" width="124" height="48" as="geometry" />
        </mxCell>
        <mxCell id="O8RlAg53PrCzjrN2fHx7-497" value="小组讨论" style="whiteSpace=wrap;strokeWidth=2;" vertex="1" parent="1">
          <mxGeometry x="703" y="6747" width="125" height="48" as="geometry" />
        </mxCell>
        <mxCell id="O8RlAg53PrCzjrN2fHx7-498" value="与AIGC互动问答" style="whiteSpace=wrap;strokeWidth=2;" vertex="1" parent="1">
          <mxGeometry x="677" y="6846" width="175" height="48" as="geometry" />
        </mxCell>
        <mxCell id="O8RlAg53PrCzjrN2fHx7-499" value="参与话题辩论" style="whiteSpace=wrap;strokeWidth=2;" vertex="1" parent="1">
          <mxGeometry x="687" y="6944" width="157" height="48" as="geometry" />
        </mxCell>
        <mxCell id="O8RlAg53PrCzjrN2fHx7-500" value="课后阶段" style="whiteSpace=wrap;strokeWidth=2;" vertex="1" parent="1">
          <mxGeometry x="327" y="7190" width="125" height="48" as="geometry" />
        </mxCell>
        <mxCell id="O8RlAg53PrCzjrN2fHx7-501" value="教师评价" style="whiteSpace=wrap;strokeWidth=2;" vertex="1" parent="1">
          <mxGeometry x="502" y="7092" width="126" height="48" as="geometry" />
        </mxCell>
        <mxCell id="O8RlAg53PrCzjrN2fHx7-502" value="智能批改作业" style="whiteSpace=wrap;strokeWidth=2;" vertex="1" parent="1">
          <mxGeometry x="687" y="7042" width="157" height="48" as="geometry" />
        </mxCell>
        <mxCell id="O8RlAg53PrCzjrN2fHx7-503" value="推送个性化练习" style="whiteSpace=wrap;strokeWidth=2;" vertex="1" parent="1">
          <mxGeometry x="679" y="7141" width="172" height="48" as="geometry" />
        </mxCell>
        <mxCell id="O8RlAg53PrCzjrN2fHx7-504" value="学生复习" style="whiteSpace=wrap;strokeWidth=2;" vertex="1" parent="1">
          <mxGeometry x="503" y="7338" width="124" height="48" as="geometry" />
        </mxCell>
        <mxCell id="O8RlAg53PrCzjrN2fHx7-505" value="分析作业报告" style="whiteSpace=wrap;strokeWidth=2;" vertex="1" parent="1">
          <mxGeometry x="687" y="7239" width="157" height="48" as="geometry" />
        </mxCell>
        <mxCell id="O8RlAg53PrCzjrN2fHx7-506" value="查漏补缺" style="whiteSpace=wrap;strokeWidth=2;" vertex="1" parent="1">
          <mxGeometry x="703" y="7338" width="125" height="48" as="geometry" />
        </mxCell>
        <mxCell id="O8RlAg53PrCzjrN2fHx7-507" value="自主扩展学习" style="whiteSpace=wrap;strokeWidth=2;" vertex="1" parent="1">
          <mxGeometry x="687" y="7436" width="156" height="48" as="geometry" />
        </mxCell>
        <mxCell id="O8RlAg53PrCzjrN2fHx7-508" value="" style="curved=1;startArrow=none;endArrow=block;exitX=0.55;exitY=0;entryX=0;entryY=0.5;rounded=0;" edge="1" parent="1" source="O8RlAg53PrCzjrN2fHx7-482" target="O8RlAg53PrCzjrN2fHx7-483">
          <mxGeometry relative="1" as="geometry">
            <Array as="points">
              <mxPoint x="302" y="6230" />
            </Array>
          </mxGeometry>
        </mxCell>
        <mxCell id="O8RlAg53PrCzjrN2fHx7-509" value="" style="curved=1;startArrow=none;endArrow=block;exitX=0.61;exitY=0;entryX=0;entryY=0.51;rounded=0;" edge="1" parent="1" source="O8RlAg53PrCzjrN2fHx7-483" target="O8RlAg53PrCzjrN2fHx7-484">
          <mxGeometry relative="1" as="geometry">
            <Array as="points">
              <mxPoint x="477" y="6083" />
            </Array>
          </mxGeometry>
        </mxCell>
        <mxCell id="O8RlAg53PrCzjrN2fHx7-510" value="" style="curved=1;startArrow=none;endArrow=block;exitX=0.67;exitY=0.01;entryX=0;entryY=0.5;rounded=0;" edge="1" parent="1" source="O8RlAg53PrCzjrN2fHx7-484" target="O8RlAg53PrCzjrN2fHx7-485">
          <mxGeometry relative="1" as="geometry">
            <Array as="points">
              <mxPoint x="652" y="5984" />
            </Array>
          </mxGeometry>
        </mxCell>
        <mxCell id="O8RlAg53PrCzjrN2fHx7-511" value="" style="curved=1;startArrow=none;endArrow=block;exitX=1;exitY=0.51;entryX=0;entryY=0.51;rounded=0;" edge="1" parent="1" source="O8RlAg53PrCzjrN2fHx7-484" target="O8RlAg53PrCzjrN2fHx7-486">
          <mxGeometry relative="1" as="geometry">
            <Array as="points" />
          </mxGeometry>
        </mxCell>
        <mxCell id="O8RlAg53PrCzjrN2fHx7-512" value="" style="curved=1;startArrow=none;endArrow=block;exitX=0.67;exitY=1.02;entryX=0;entryY=0.5;rounded=0;" edge="1" parent="1" source="O8RlAg53PrCzjrN2fHx7-484" target="O8RlAg53PrCzjrN2fHx7-487">
          <mxGeometry relative="1" as="geometry">
            <Array as="points">
              <mxPoint x="652" y="6181" />
            </Array>
          </mxGeometry>
        </mxCell>
        <mxCell id="O8RlAg53PrCzjrN2fHx7-513" value="" style="curved=1;startArrow=none;endArrow=block;exitX=0.61;exitY=1.01;entryX=0;entryY=0.5;rounded=0;" edge="1" parent="1" source="O8RlAg53PrCzjrN2fHx7-483" target="O8RlAg53PrCzjrN2fHx7-488">
          <mxGeometry relative="1" as="geometry">
            <Array as="points">
              <mxPoint x="477" y="6378" />
            </Array>
          </mxGeometry>
        </mxCell>
        <mxCell id="O8RlAg53PrCzjrN2fHx7-514" value="" style="curved=1;startArrow=none;endArrow=block;exitX=0.67;exitY=-0.01;entryX=0;entryY=0.51;rounded=0;" edge="1" parent="1" source="O8RlAg53PrCzjrN2fHx7-488" target="O8RlAg53PrCzjrN2fHx7-489">
          <mxGeometry relative="1" as="geometry">
            <Array as="points">
              <mxPoint x="652" y="6279" />
            </Array>
          </mxGeometry>
        </mxCell>
        <mxCell id="O8RlAg53PrCzjrN2fHx7-515" value="" style="curved=1;startArrow=none;endArrow=block;exitX=1;exitY=0.5;entryX=0;entryY=0.5;rounded=0;" edge="1" parent="1" source="O8RlAg53PrCzjrN2fHx7-488" target="O8RlAg53PrCzjrN2fHx7-490">
          <mxGeometry relative="1" as="geometry">
            <Array as="points" />
          </mxGeometry>
        </mxCell>
        <mxCell id="O8RlAg53PrCzjrN2fHx7-516" value="" style="curved=1;startArrow=none;endArrow=block;exitX=0.67;exitY=1;entryX=0;entryY=0.5;rounded=0;" edge="1" parent="1" source="O8RlAg53PrCzjrN2fHx7-488" target="O8RlAg53PrCzjrN2fHx7-491">
          <mxGeometry relative="1" as="geometry">
            <Array as="points">
              <mxPoint x="652" y="6476" />
            </Array>
          </mxGeometry>
        </mxCell>
        <mxCell id="O8RlAg53PrCzjrN2fHx7-517" value="" style="curved=1;startArrow=none;endArrow=block;exitX=1;exitY=0.5;entryX=0;entryY=0.5;rounded=0;" edge="1" parent="1" source="O8RlAg53PrCzjrN2fHx7-482" target="O8RlAg53PrCzjrN2fHx7-492">
          <mxGeometry relative="1" as="geometry">
            <Array as="points" />
          </mxGeometry>
        </mxCell>
        <mxCell id="O8RlAg53PrCzjrN2fHx7-518" value="" style="curved=1;startArrow=none;endArrow=block;exitX=0.67;exitY=0;entryX=0;entryY=0.5;rounded=0;" edge="1" parent="1" source="O8RlAg53PrCzjrN2fHx7-492" target="O8RlAg53PrCzjrN2fHx7-493">
          <mxGeometry relative="1" as="geometry">
            <Array as="points">
              <mxPoint x="477" y="6624" />
            </Array>
          </mxGeometry>
        </mxCell>
        <mxCell id="O8RlAg53PrCzjrN2fHx7-519" value="" style="curved=1;startArrow=none;endArrow=block;exitX=0.84;exitY=-0.01;entryX=0;entryY=0.51;rounded=0;" edge="1" parent="1" source="O8RlAg53PrCzjrN2fHx7-493" target="O8RlAg53PrCzjrN2fHx7-494">
          <mxGeometry relative="1" as="geometry">
            <Array as="points">
              <mxPoint x="652" y="6575" />
            </Array>
          </mxGeometry>
        </mxCell>
        <mxCell id="O8RlAg53PrCzjrN2fHx7-520" value="" style="curved=1;startArrow=none;endArrow=block;exitX=0.84;exitY=1;entryX=0;entryY=0.5;rounded=0;" edge="1" parent="1" source="O8RlAg53PrCzjrN2fHx7-493" target="O8RlAg53PrCzjrN2fHx7-495">
          <mxGeometry relative="1" as="geometry">
            <Array as="points">
              <mxPoint x="652" y="6673" />
            </Array>
          </mxGeometry>
        </mxCell>
        <mxCell id="O8RlAg53PrCzjrN2fHx7-521" value="" style="curved=1;startArrow=none;endArrow=block;exitX=0.61;exitY=1.01;entryX=0;entryY=0.5;rounded=0;" edge="1" parent="1" source="O8RlAg53PrCzjrN2fHx7-492" target="O8RlAg53PrCzjrN2fHx7-496">
          <mxGeometry relative="1" as="geometry">
            <Array as="points">
              <mxPoint x="477" y="6870" />
            </Array>
          </mxGeometry>
        </mxCell>
        <mxCell id="O8RlAg53PrCzjrN2fHx7-522" value="" style="curved=1;startArrow=none;endArrow=block;exitX=0.67;exitY=-0.01;entryX=0;entryY=0.51;rounded=0;" edge="1" parent="1" source="O8RlAg53PrCzjrN2fHx7-496" target="O8RlAg53PrCzjrN2fHx7-497">
          <mxGeometry relative="1" as="geometry">
            <Array as="points">
              <mxPoint x="652" y="6771" />
            </Array>
          </mxGeometry>
        </mxCell>
        <mxCell id="O8RlAg53PrCzjrN2fHx7-523" value="" style="curved=1;startArrow=none;endArrow=block;exitX=1;exitY=0.5;entryX=0;entryY=0.5;rounded=0;" edge="1" parent="1" source="O8RlAg53PrCzjrN2fHx7-496" target="O8RlAg53PrCzjrN2fHx7-498">
          <mxGeometry relative="1" as="geometry">
            <Array as="points" />
          </mxGeometry>
        </mxCell>
        <mxCell id="O8RlAg53PrCzjrN2fHx7-524" value="" style="curved=1;startArrow=none;endArrow=block;exitX=0.67;exitY=1;entryX=0;entryY=0.5;rounded=0;" edge="1" parent="1" source="O8RlAg53PrCzjrN2fHx7-496" target="O8RlAg53PrCzjrN2fHx7-499">
          <mxGeometry relative="1" as="geometry">
            <Array as="points">
              <mxPoint x="652" y="6968" />
            </Array>
          </mxGeometry>
        </mxCell>
        <mxCell id="O8RlAg53PrCzjrN2fHx7-525" value="" style="curved=1;startArrow=none;endArrow=block;exitX=0.55;exitY=1;entryX=0;entryY=0.5;rounded=0;" edge="1" parent="1" source="O8RlAg53PrCzjrN2fHx7-482" target="O8RlAg53PrCzjrN2fHx7-500">
          <mxGeometry relative="1" as="geometry">
            <Array as="points">
              <mxPoint x="302" y="7214" />
            </Array>
          </mxGeometry>
        </mxCell>
        <mxCell id="O8RlAg53PrCzjrN2fHx7-526" value="" style="curved=1;startArrow=none;endArrow=block;exitX=0.67;exitY=0;entryX=0;entryY=0.5;rounded=0;" edge="1" parent="1" source="O8RlAg53PrCzjrN2fHx7-500" target="O8RlAg53PrCzjrN2fHx7-501">
          <mxGeometry relative="1" as="geometry">
            <Array as="points">
              <mxPoint x="477" y="7116" />
            </Array>
          </mxGeometry>
        </mxCell>
        <mxCell id="O8RlAg53PrCzjrN2fHx7-527" value="" style="curved=1;startArrow=none;endArrow=block;exitX=0.84;exitY=-0.01;entryX=0;entryY=0.51;rounded=0;" edge="1" parent="1" source="O8RlAg53PrCzjrN2fHx7-501" target="O8RlAg53PrCzjrN2fHx7-502">
          <mxGeometry relative="1" as="geometry">
            <Array as="points">
              <mxPoint x="652" y="7067" />
            </Array>
          </mxGeometry>
        </mxCell>
        <mxCell id="O8RlAg53PrCzjrN2fHx7-528" value="" style="curved=1;startArrow=none;endArrow=block;exitX=0.84;exitY=1;entryX=0;entryY=0.5;rounded=0;" edge="1" parent="1" source="O8RlAg53PrCzjrN2fHx7-501" target="O8RlAg53PrCzjrN2fHx7-503">
          <mxGeometry relative="1" as="geometry">
            <Array as="points">
              <mxPoint x="652" y="7165" />
            </Array>
          </mxGeometry>
        </mxCell>
        <mxCell id="O8RlAg53PrCzjrN2fHx7-529" value="" style="curved=1;startArrow=none;endArrow=block;exitX=0.61;exitY=1.01;entryX=0;entryY=0.5;rounded=0;" edge="1" parent="1" source="O8RlAg53PrCzjrN2fHx7-500" target="O8RlAg53PrCzjrN2fHx7-504">
          <mxGeometry relative="1" as="geometry">
            <Array as="points">
              <mxPoint x="477" y="7362" />
            </Array>
          </mxGeometry>
        </mxCell>
        <mxCell id="O8RlAg53PrCzjrN2fHx7-530" value="" style="curved=1;startArrow=none;endArrow=block;exitX=0.67;exitY=-0.01;entryX=0;entryY=0.51;rounded=0;" edge="1" parent="1" source="O8RlAg53PrCzjrN2fHx7-504" target="O8RlAg53PrCzjrN2fHx7-505">
          <mxGeometry relative="1" as="geometry">
            <Array as="points">
              <mxPoint x="652" y="7263" />
            </Array>
          </mxGeometry>
        </mxCell>
        <mxCell id="O8RlAg53PrCzjrN2fHx7-531" value="" style="curved=1;startArrow=none;endArrow=block;exitX=1;exitY=0.5;entryX=0;entryY=0.5;rounded=0;" edge="1" parent="1" source="O8RlAg53PrCzjrN2fHx7-504" target="O8RlAg53PrCzjrN2fHx7-506">
          <mxGeometry relative="1" as="geometry">
            <Array as="points" />
          </mxGeometry>
        </mxCell>
        <mxCell id="O8RlAg53PrCzjrN2fHx7-532" value="" style="curved=1;startArrow=none;endArrow=block;exitX=0.67;exitY=1;entryX=0;entryY=0.5;rounded=0;" edge="1" parent="1" source="O8RlAg53PrCzjrN2fHx7-504" target="O8RlAg53PrCzjrN2fHx7-507">
          <mxGeometry relative="1" as="geometry">
            <Array as="points">
              <mxPoint x="652" y="7460" />
            </Array>
          </mxGeometry>
        </mxCell>
        <mxCell id="O8RlAg53PrCzjrN2fHx7-533" value="论文题目：基于超星学习通平台的护理研究课程翻转课堂教学模型与模式探索" style="whiteSpace=wrap;strokeWidth=2;" vertex="1" parent="1">
          <mxGeometry x="20" y="8280" width="253" height="84" as="geometry" />
        </mxCell>
        <mxCell id="O8RlAg53PrCzjrN2fHx7-534" value="分析阶段" style="whiteSpace=wrap;strokeWidth=2;" vertex="1" parent="1">
          <mxGeometry x="323" y="7658" width="126" height="48" as="geometry" />
        </mxCell>
        <mxCell id="O8RlAg53PrCzjrN2fHx7-535" value="教学大纲分析" style="whiteSpace=wrap;strokeWidth=2;" vertex="1" parent="1">
          <mxGeometry x="538" y="7510" width="158" height="48" as="geometry" />
        </mxCell>
        <mxCell id="O8RlAg53PrCzjrN2fHx7-536" value="学生学情分析" style="whiteSpace=wrap;strokeWidth=2;" vertex="1" parent="1">
          <mxGeometry x="538" y="7608" width="157" height="48" as="geometry" />
        </mxCell>
        <mxCell id="O8RlAg53PrCzjrN2fHx7-537" value="教学重点与难点分析" style="whiteSpace=wrap;strokeWidth=2;" vertex="1" parent="1">
          <mxGeometry x="514" y="7707" width="206" height="48" as="geometry" />
        </mxCell>
        <mxCell id="O8RlAg53PrCzjrN2fHx7-538" value="超星学习通平台性能分析" style="whiteSpace=wrap;strokeWidth=2;" vertex="1" parent="1">
          <mxGeometry x="498" y="7805" width="237" height="48" as="geometry" />
        </mxCell>
        <mxCell id="O8RlAg53PrCzjrN2fHx7-539" value="准备阶段" style="whiteSpace=wrap;strokeWidth=2;" vertex="1" parent="1">
          <mxGeometry x="323" y="8002" width="125" height="48" as="geometry" />
        </mxCell>
        <mxCell id="O8RlAg53PrCzjrN2fHx7-540" value="设计自主学习任务单" style="whiteSpace=wrap;strokeWidth=2;" vertex="1" parent="1">
          <mxGeometry x="515" y="7904" width="204" height="48" as="geometry" />
        </mxCell>
        <mxCell id="O8RlAg53PrCzjrN2fHx7-541" value="创建教学资源" style="whiteSpace=wrap;strokeWidth=2;" vertex="1" parent="1">
          <mxGeometry x="538" y="8002" width="157" height="48" as="geometry" />
        </mxCell>
        <mxCell id="O8RlAg53PrCzjrN2fHx7-542" value="建设网络课程" style="whiteSpace=wrap;strokeWidth=2;" vertex="1" parent="1">
          <mxGeometry x="538" y="8100" width="157" height="48" as="geometry" />
        </mxCell>
        <mxCell id="O8RlAg53PrCzjrN2fHx7-543" value="设计阶段" style="whiteSpace=wrap;strokeWidth=2;" vertex="1" parent="1">
          <mxGeometry x="323" y="8297" width="125" height="48" as="geometry" />
        </mxCell>
        <mxCell id="O8RlAg53PrCzjrN2fHx7-544" value="课前活动设计" style="whiteSpace=wrap;strokeWidth=2;" vertex="1" parent="1">
          <mxGeometry x="539" y="8199" width="156" height="48" as="geometry" />
        </mxCell>
        <mxCell id="O8RlAg53PrCzjrN2fHx7-545" value="课中活动设计" style="whiteSpace=wrap;strokeWidth=2;" vertex="1" parent="1">
          <mxGeometry x="539" y="8297" width="156" height="48" as="geometry" />
        </mxCell>
        <mxCell id="O8RlAg53PrCzjrN2fHx7-546" value="课后活动设计" style="whiteSpace=wrap;strokeWidth=2;" vertex="1" parent="1">
          <mxGeometry x="539" y="8396" width="156" height="48" as="geometry" />
        </mxCell>
        <mxCell id="O8RlAg53PrCzjrN2fHx7-547" value="评价阶段" style="whiteSpace=wrap;strokeWidth=2;" vertex="1" parent="1">
          <mxGeometry x="323" y="8543" width="125" height="48" as="geometry" />
        </mxCell>
        <mxCell id="O8RlAg53PrCzjrN2fHx7-548" value="过程性评价" style="whiteSpace=wrap;strokeWidth=2;" vertex="1" parent="1">
          <mxGeometry x="546" y="8494" width="141" height="48" as="geometry" />
        </mxCell>
        <mxCell id="O8RlAg53PrCzjrN2fHx7-549" value="终结性考核" style="whiteSpace=wrap;strokeWidth=2;" vertex="1" parent="1">
          <mxGeometry x="546" y="8592" width="142" height="48" as="geometry" />
        </mxCell>
        <mxCell id="O8RlAg53PrCzjrN2fHx7-550" value="形成阶段" style="whiteSpace=wrap;strokeWidth=2;" vertex="1" parent="1">
          <mxGeometry x="323" y="8740" width="126" height="48" as="geometry" />
        </mxCell>
        <mxCell id="O8RlAg53PrCzjrN2fHx7-551" value="教学反思与反馈" style="whiteSpace=wrap;strokeWidth=2;" vertex="1" parent="1">
          <mxGeometry x="530" y="8691" width="174" height="48" as="geometry" />
        </mxCell>
        <mxCell id="O8RlAg53PrCzjrN2fHx7-552" value="优化模型与模式" style="whiteSpace=wrap;strokeWidth=2;" vertex="1" parent="1">
          <mxGeometry x="531" y="8789" width="172" height="48" as="geometry" />
        </mxCell>
        <mxCell id="O8RlAg53PrCzjrN2fHx7-553" value="" style="curved=1;startArrow=none;endArrow=block;exitX=0.54;exitY=0;entryX=0;entryY=0.5;rounded=0;" edge="1" parent="1" source="O8RlAg53PrCzjrN2fHx7-533" target="O8RlAg53PrCzjrN2fHx7-534">
          <mxGeometry relative="1" as="geometry">
            <Array as="points">
              <mxPoint x="298" y="7682" />
            </Array>
          </mxGeometry>
        </mxCell>
        <mxCell id="O8RlAg53PrCzjrN2fHx7-554" value="" style="curved=1;startArrow=none;endArrow=block;exitX=0.61;exitY=-0.01;entryX=0;entryY=0.5;rounded=0;" edge="1" parent="1" source="O8RlAg53PrCzjrN2fHx7-534" target="O8RlAg53PrCzjrN2fHx7-535">
          <mxGeometry relative="1" as="geometry">
            <Array as="points">
              <mxPoint x="473" y="7534" />
            </Array>
          </mxGeometry>
        </mxCell>
        <mxCell id="O8RlAg53PrCzjrN2fHx7-555" value="" style="curved=1;startArrow=none;endArrow=block;exitX=0.84;exitY=-0.01;entryX=0;entryY=0.51;rounded=0;" edge="1" parent="1" source="O8RlAg53PrCzjrN2fHx7-534" target="O8RlAg53PrCzjrN2fHx7-536">
          <mxGeometry relative="1" as="geometry">
            <Array as="points">
              <mxPoint x="473" y="7633" />
            </Array>
          </mxGeometry>
        </mxCell>
        <mxCell id="O8RlAg53PrCzjrN2fHx7-556" value="" style="curved=1;startArrow=none;endArrow=block;exitX=0.84;exitY=1;entryX=0;entryY=0.5;rounded=0;" edge="1" parent="1" source="O8RlAg53PrCzjrN2fHx7-534" target="O8RlAg53PrCzjrN2fHx7-537">
          <mxGeometry relative="1" as="geometry">
            <Array as="points">
              <mxPoint x="473" y="7731" />
            </Array>
          </mxGeometry>
        </mxCell>
        <mxCell id="O8RlAg53PrCzjrN2fHx7-557" value="" style="curved=1;startArrow=none;endArrow=block;exitX=0.61;exitY=1;entryX=0;entryY=0.51;rounded=0;" edge="1" parent="1" source="O8RlAg53PrCzjrN2fHx7-534" target="O8RlAg53PrCzjrN2fHx7-538">
          <mxGeometry relative="1" as="geometry">
            <Array as="points">
              <mxPoint x="473" y="7829" />
            </Array>
          </mxGeometry>
        </mxCell>
        <mxCell id="O8RlAg53PrCzjrN2fHx7-558" value="" style="curved=1;startArrow=none;endArrow=block;exitX=0.58;exitY=0;entryX=0;entryY=0.5;rounded=0;" edge="1" parent="1" source="O8RlAg53PrCzjrN2fHx7-533" target="O8RlAg53PrCzjrN2fHx7-539">
          <mxGeometry relative="1" as="geometry">
            <Array as="points">
              <mxPoint x="298" y="8026" />
            </Array>
          </mxGeometry>
        </mxCell>
        <mxCell id="O8RlAg53PrCzjrN2fHx7-559" value="" style="curved=1;startArrow=none;endArrow=block;exitX=0.67;exitY=0;entryX=0;entryY=0.5;rounded=0;" edge="1" parent="1" source="O8RlAg53PrCzjrN2fHx7-539" target="O8RlAg53PrCzjrN2fHx7-540">
          <mxGeometry relative="1" as="geometry">
            <Array as="points">
              <mxPoint x="473" y="7928" />
            </Array>
          </mxGeometry>
        </mxCell>
        <mxCell id="O8RlAg53PrCzjrN2fHx7-560" value="" style="curved=1;startArrow=none;endArrow=block;exitX=1;exitY=0.5;entryX=0;entryY=0.5;rounded=0;" edge="1" parent="1" source="O8RlAg53PrCzjrN2fHx7-539" target="O8RlAg53PrCzjrN2fHx7-541">
          <mxGeometry relative="1" as="geometry">
            <Array as="points" />
          </mxGeometry>
        </mxCell>
        <mxCell id="O8RlAg53PrCzjrN2fHx7-561" value="" style="curved=1;startArrow=none;endArrow=block;exitX=0.67;exitY=1.01;entryX=0;entryY=0.51;rounded=0;" edge="1" parent="1" source="O8RlAg53PrCzjrN2fHx7-539" target="O8RlAg53PrCzjrN2fHx7-542">
          <mxGeometry relative="1" as="geometry">
            <Array as="points">
              <mxPoint x="473" y="8125" />
            </Array>
          </mxGeometry>
        </mxCell>
        <mxCell id="O8RlAg53PrCzjrN2fHx7-562" value="" style="curved=1;startArrow=none;endArrow=block;exitX=1;exitY=0.49;entryX=0;entryY=0.51;rounded=0;" edge="1" parent="1" source="O8RlAg53PrCzjrN2fHx7-533" target="O8RlAg53PrCzjrN2fHx7-543">
          <mxGeometry relative="1" as="geometry">
            <Array as="points" />
          </mxGeometry>
        </mxCell>
        <mxCell id="O8RlAg53PrCzjrN2fHx7-563" value="" style="curved=1;startArrow=none;endArrow=block;exitX=0.67;exitY=0;entryX=0;entryY=0.5;rounded=0;" edge="1" parent="1" source="O8RlAg53PrCzjrN2fHx7-543" target="O8RlAg53PrCzjrN2fHx7-544">
          <mxGeometry relative="1" as="geometry">
            <Array as="points">
              <mxPoint x="473" y="8223" />
            </Array>
          </mxGeometry>
        </mxCell>
        <mxCell id="O8RlAg53PrCzjrN2fHx7-564" value="" style="curved=1;startArrow=none;endArrow=block;exitX=1;exitY=0.51;entryX=0;entryY=0.51;rounded=0;" edge="1" parent="1" source="O8RlAg53PrCzjrN2fHx7-543" target="O8RlAg53PrCzjrN2fHx7-545">
          <mxGeometry relative="1" as="geometry">
            <Array as="points" />
          </mxGeometry>
        </mxCell>
        <mxCell id="O8RlAg53PrCzjrN2fHx7-565" value="" style="curved=1;startArrow=none;endArrow=block;exitX=0.67;exitY=1.01;entryX=0;entryY=0.5;rounded=0;" edge="1" parent="1" source="O8RlAg53PrCzjrN2fHx7-543" target="O8RlAg53PrCzjrN2fHx7-546">
          <mxGeometry relative="1" as="geometry">
            <Array as="points">
              <mxPoint x="473" y="8420" />
            </Array>
          </mxGeometry>
        </mxCell>
        <mxCell id="O8RlAg53PrCzjrN2fHx7-566" value="" style="curved=1;startArrow=none;endArrow=block;exitX=0.6;exitY=0.99;entryX=0;entryY=0.51;rounded=0;" edge="1" parent="1" source="O8RlAg53PrCzjrN2fHx7-533" target="O8RlAg53PrCzjrN2fHx7-547">
          <mxGeometry relative="1" as="geometry">
            <Array as="points">
              <mxPoint x="298" y="8567" />
            </Array>
          </mxGeometry>
        </mxCell>
        <mxCell id="O8RlAg53PrCzjrN2fHx7-567" value="" style="curved=1;startArrow=none;endArrow=block;exitX=0.85;exitY=0;entryX=0;entryY=0.5;rounded=0;" edge="1" parent="1" source="O8RlAg53PrCzjrN2fHx7-547" target="O8RlAg53PrCzjrN2fHx7-548">
          <mxGeometry relative="1" as="geometry">
            <Array as="points">
              <mxPoint x="473" y="8518" />
            </Array>
          </mxGeometry>
        </mxCell>
        <mxCell id="O8RlAg53PrCzjrN2fHx7-568" value="" style="curved=1;startArrow=none;endArrow=block;exitX=0.85;exitY=1.01;entryX=0;entryY=0.51;rounded=0;" edge="1" parent="1" source="O8RlAg53PrCzjrN2fHx7-547" target="O8RlAg53PrCzjrN2fHx7-549">
          <mxGeometry relative="1" as="geometry">
            <Array as="points">
              <mxPoint x="473" y="8617" />
            </Array>
          </mxGeometry>
        </mxCell>
        <mxCell id="O8RlAg53PrCzjrN2fHx7-569" value="" style="curved=1;startArrow=none;endArrow=block;exitX=0.56;exitY=0.99;entryX=0;entryY=0.5;rounded=0;" edge="1" parent="1" source="O8RlAg53PrCzjrN2fHx7-533" target="O8RlAg53PrCzjrN2fHx7-550">
          <mxGeometry relative="1" as="geometry">
            <Array as="points">
              <mxPoint x="298" y="8764" />
            </Array>
          </mxGeometry>
        </mxCell>
        <mxCell id="O8RlAg53PrCzjrN2fHx7-570" value="" style="curved=1;startArrow=none;endArrow=block;exitX=0.84;exitY=0;entryX=0;entryY=0.5;rounded=0;" edge="1" parent="1" source="O8RlAg53PrCzjrN2fHx7-550" target="O8RlAg53PrCzjrN2fHx7-551">
          <mxGeometry relative="1" as="geometry">
            <Array as="points">
              <mxPoint x="473" y="8715" />
            </Array>
          </mxGeometry>
        </mxCell>
        <mxCell id="O8RlAg53PrCzjrN2fHx7-571" value="" style="curved=1;startArrow=none;endArrow=block;exitX=0.84;exitY=1.01;entryX=0;entryY=0.51;rounded=0;" edge="1" parent="1" source="O8RlAg53PrCzjrN2fHx7-550" target="O8RlAg53PrCzjrN2fHx7-552">
          <mxGeometry relative="1" as="geometry">
            <Array as="points">
              <mxPoint x="473" y="8813" />
            </Array>
          </mxGeometry>
        </mxCell>
        <mxCell id="O8RlAg53PrCzjrN2fHx7-572" value="论文题目：数智赋能 AI助学——基于课程育人理念的基础英语教育教学实践研究" style="whiteSpace=wrap;strokeWidth=2;" vertex="1" parent="1">
          <mxGeometry x="20" y="9424" width="259" height="101" as="geometry" />
        </mxCell>
        <mxCell id="O8RlAg53PrCzjrN2fHx7-573" value="研究背景" style="whiteSpace=wrap;strokeWidth=2;" vertex="1" parent="1">
          <mxGeometry x="329" y="8909" width="124" height="48" as="geometry" />
        </mxCell>
        <mxCell id="O8RlAg53PrCzjrN2fHx7-574" value="大班式教学局限性" style="whiteSpace=wrap;strokeWidth=2;" vertex="1" parent="1">
          <mxGeometry x="531" y="8860" width="189" height="48" as="geometry" />
        </mxCell>
        <mxCell id="O8RlAg53PrCzjrN2fHx7-575" value="信息技术赋能教育趋势" style="whiteSpace=wrap;strokeWidth=2;" vertex="1" parent="1">
          <mxGeometry x="515" y="8958" width="222" height="48" as="geometry" />
        </mxCell>
        <mxCell id="O8RlAg53PrCzjrN2fHx7-576" value="AI技术在教学中的潜力" style="whiteSpace=wrap;strokeWidth=2;" vertex="1" parent="1">
          <mxGeometry x="516" y="9057" width="219" height="48" as="geometry" />
        </mxCell>
        <mxCell id="O8RlAg53PrCzjrN2fHx7-577" value="教学模式" style="whiteSpace=wrap;strokeWidth=2;" vertex="1" parent="1">
          <mxGeometry x="329" y="9204" width="125" height="48" as="geometry" />
        </mxCell>
        <mxCell id="O8RlAg53PrCzjrN2fHx7-578" value="优化学习环境" style="whiteSpace=wrap;strokeWidth=2;" vertex="1" parent="1">
          <mxGeometry x="547" y="9155" width="157" height="48" as="geometry" />
        </mxCell>
        <mxCell id="O8RlAg53PrCzjrN2fHx7-579" value="数据驱动教学" style="whiteSpace=wrap;strokeWidth=2;" vertex="1" parent="1">
          <mxGeometry x="547" y="9254" width="157" height="48" as="geometry" />
        </mxCell>
        <mxCell id="O8RlAg53PrCzjrN2fHx7-580" value="设计教—学—评一体化活动" style="whiteSpace=wrap;strokeWidth=2;" vertex="1" parent="1">
          <mxGeometry x="504" y="9352" width="244" height="48" as="geometry" />
        </mxCell>
        <mxCell id="O8RlAg53PrCzjrN2fHx7-581" value="实施过程" style="whiteSpace=wrap;strokeWidth=2;" vertex="1" parent="1">
          <mxGeometry x="329" y="9647" width="125" height="48" as="geometry" />
        </mxCell>
        <mxCell id="O8RlAg53PrCzjrN2fHx7-582" value="课前" style="whiteSpace=wrap;strokeWidth=2;" vertex="1" parent="1">
          <mxGeometry x="580" y="9450" width="92" height="48" as="geometry" />
        </mxCell>
        <mxCell id="O8RlAg53PrCzjrN2fHx7-583" value="使用智能检测工具" style="whiteSpace=wrap;strokeWidth=2;" vertex="1" parent="1">
          <mxGeometry x="806" y="9303" width="188" height="48" as="geometry" />
        </mxCell>
        <mxCell id="O8RlAg53PrCzjrN2fHx7-584" value="设计问题链" style="whiteSpace=wrap;strokeWidth=2;" vertex="1" parent="1">
          <mxGeometry x="829" y="9401" width="141" height="48" as="geometry" />
        </mxCell>
        <mxCell id="O8RlAg53PrCzjrN2fHx7-585" value="推送学习资源" style="whiteSpace=wrap;strokeWidth=2;" vertex="1" parent="1">
          <mxGeometry x="821" y="9500" width="157" height="48" as="geometry" />
        </mxCell>
        <mxCell id="O8RlAg53PrCzjrN2fHx7-586" value="课中" style="whiteSpace=wrap;strokeWidth=2;" vertex="1" parent="1">
          <mxGeometry x="580" y="9647" width="92" height="48" as="geometry" />
        </mxCell>
        <mxCell id="O8RlAg53PrCzjrN2fHx7-587" value="小组合作与探讨" style="whiteSpace=wrap;strokeWidth=2;" vertex="1" parent="1">
          <mxGeometry x="813" y="9598" width="173" height="48" as="geometry" />
        </mxCell>
        <mxCell id="O8RlAg53PrCzjrN2fHx7-588" value="表达输出与交流反馈" style="whiteSpace=wrap;strokeWidth=2;" vertex="1" parent="1">
          <mxGeometry x="797" y="9696" width="205" height="48" as="geometry" />
        </mxCell>
        <mxCell id="O8RlAg53PrCzjrN2fHx7-589" value="课后" style="whiteSpace=wrap;strokeWidth=2;" vertex="1" parent="1">
          <mxGeometry x="580" y="9844" width="92" height="48" as="geometry" />
        </mxCell>
        <mxCell id="O8RlAg53PrCzjrN2fHx7-590" value="撰写实践报告" style="whiteSpace=wrap;strokeWidth=2;" vertex="1" parent="1">
          <mxGeometry x="821" y="9795" width="157" height="48" as="geometry" />
        </mxCell>
        <mxCell id="O8RlAg53PrCzjrN2fHx7-591" value="拓展学习与深度分析" style="whiteSpace=wrap;strokeWidth=2;" vertex="1" parent="1">
          <mxGeometry x="797" y="9893" width="205" height="48" as="geometry" />
        </mxCell>
        <mxCell id="O8RlAg53PrCzjrN2fHx7-592" value="实施策略" style="whiteSpace=wrap;strokeWidth=2;" vertex="1" parent="1">
          <mxGeometry x="329" y="10041" width="125" height="48" as="geometry" />
        </mxCell>
        <mxCell id="O8RlAg53PrCzjrN2fHx7-593" value="整合AI资源" style="whiteSpace=wrap;strokeWidth=2;" vertex="1" parent="1">
          <mxGeometry x="556" y="9942" width="139" height="48" as="geometry" />
        </mxCell>
        <mxCell id="O8RlAg53PrCzjrN2fHx7-594" value="个性化学习" style="whiteSpace=wrap;strokeWidth=2;" vertex="1" parent="1">
          <mxGeometry x="555" y="10041" width="141" height="48" as="geometry" />
        </mxCell>
        <mxCell id="O8RlAg53PrCzjrN2fHx7-595" value="提升互动性" style="whiteSpace=wrap;strokeWidth=2;" vertex="1" parent="1">
          <mxGeometry x="555" y="10139" width="141" height="48" as="geometry" />
        </mxCell>
        <mxCell id="O8RlAg53PrCzjrN2fHx7-596" value="" style="curved=1;startArrow=none;endArrow=block;exitX=0.56;exitY=0;entryX=0;entryY=0.51;rounded=0;" edge="1" parent="1" source="O8RlAg53PrCzjrN2fHx7-572" target="O8RlAg53PrCzjrN2fHx7-573">
          <mxGeometry relative="1" as="geometry">
            <Array as="points">
              <mxPoint x="304" y="8933" />
            </Array>
          </mxGeometry>
        </mxCell>
        <mxCell id="O8RlAg53PrCzjrN2fHx7-597" value="" style="curved=1;startArrow=none;endArrow=block;exitX=0.85;exitY=0;entryX=0;entryY=0.5;rounded=0;" edge="1" parent="1" source="O8RlAg53PrCzjrN2fHx7-573" target="O8RlAg53PrCzjrN2fHx7-574">
          <mxGeometry relative="1" as="geometry">
            <Array as="points">
              <mxPoint x="479" y="8884" />
            </Array>
          </mxGeometry>
        </mxCell>
        <mxCell id="O8RlAg53PrCzjrN2fHx7-598" value="" style="curved=1;startArrow=none;endArrow=block;exitX=0.85;exitY=1.01;entryX=0;entryY=0.51;rounded=0;" edge="1" parent="1" source="O8RlAg53PrCzjrN2fHx7-573" target="O8RlAg53PrCzjrN2fHx7-575">
          <mxGeometry relative="1" as="geometry">
            <Array as="points">
              <mxPoint x="479" y="8983" />
            </Array>
          </mxGeometry>
        </mxCell>
        <mxCell id="O8RlAg53PrCzjrN2fHx7-599" value="" style="curved=1;startArrow=none;endArrow=block;exitX=0.62;exitY=1.01;entryX=0;entryY=0.5;rounded=0;" edge="1" parent="1" source="O8RlAg53PrCzjrN2fHx7-573" target="O8RlAg53PrCzjrN2fHx7-576">
          <mxGeometry relative="1" as="geometry">
            <Array as="points">
              <mxPoint x="479" y="9081" />
            </Array>
          </mxGeometry>
        </mxCell>
        <mxCell id="O8RlAg53PrCzjrN2fHx7-600" value="" style="curved=1;startArrow=none;endArrow=block;exitX=0.62;exitY=0;entryX=0;entryY=0.51;rounded=0;" edge="1" parent="1" source="O8RlAg53PrCzjrN2fHx7-572" target="O8RlAg53PrCzjrN2fHx7-577">
          <mxGeometry relative="1" as="geometry">
            <Array as="points">
              <mxPoint x="304" y="9229" />
            </Array>
          </mxGeometry>
        </mxCell>
        <mxCell id="O8RlAg53PrCzjrN2fHx7-601" value="" style="curved=1;startArrow=none;endArrow=block;exitX=0.84;exitY=0.01;entryX=0;entryY=0.51;rounded=0;" edge="1" parent="1" source="O8RlAg53PrCzjrN2fHx7-577" target="O8RlAg53PrCzjrN2fHx7-578">
          <mxGeometry relative="1" as="geometry">
            <Array as="points">
              <mxPoint x="479" y="9179" />
            </Array>
          </mxGeometry>
        </mxCell>
        <mxCell id="O8RlAg53PrCzjrN2fHx7-602" value="" style="curved=1;startArrow=none;endArrow=block;exitX=0.84;exitY=1.02;entryX=0;entryY=0.5;rounded=0;" edge="1" parent="1" source="O8RlAg53PrCzjrN2fHx7-577" target="O8RlAg53PrCzjrN2fHx7-579">
          <mxGeometry relative="1" as="geometry">
            <Array as="points">
              <mxPoint x="479" y="9278" />
            </Array>
          </mxGeometry>
        </mxCell>
        <mxCell id="O8RlAg53PrCzjrN2fHx7-603" value="" style="curved=1;startArrow=none;endArrow=block;exitX=0.61;exitY=1.02;entryX=0;entryY=0.5;rounded=0;" edge="1" parent="1" source="O8RlAg53PrCzjrN2fHx7-577" target="O8RlAg53PrCzjrN2fHx7-580">
          <mxGeometry relative="1" as="geometry">
            <Array as="points">
              <mxPoint x="479" y="9376" />
            </Array>
          </mxGeometry>
        </mxCell>
        <mxCell id="O8RlAg53PrCzjrN2fHx7-604" value="" style="curved=1;startArrow=none;endArrow=block;exitX=0.65;exitY=1;entryX=0;entryY=0.51;rounded=0;" edge="1" parent="1" source="O8RlAg53PrCzjrN2fHx7-572" target="O8RlAg53PrCzjrN2fHx7-581">
          <mxGeometry relative="1" as="geometry">
            <Array as="points">
              <mxPoint x="304" y="9671" />
            </Array>
          </mxGeometry>
        </mxCell>
        <mxCell id="O8RlAg53PrCzjrN2fHx7-605" value="" style="curved=1;startArrow=none;endArrow=block;exitX=0.59;exitY=0;entryX=0;entryY=0.51;rounded=0;" edge="1" parent="1" source="O8RlAg53PrCzjrN2fHx7-581" target="O8RlAg53PrCzjrN2fHx7-582">
          <mxGeometry relative="1" as="geometry">
            <Array as="points">
              <mxPoint x="479" y="9475" />
            </Array>
          </mxGeometry>
        </mxCell>
        <mxCell id="O8RlAg53PrCzjrN2fHx7-606" value="" style="curved=1;startArrow=none;endArrow=block;exitX=0.76;exitY=0.01;entryX=0;entryY=0.5;rounded=0;" edge="1" parent="1" source="O8RlAg53PrCzjrN2fHx7-582" target="O8RlAg53PrCzjrN2fHx7-583">
          <mxGeometry relative="1" as="geometry">
            <Array as="points">
              <mxPoint x="772" y="9327" />
            </Array>
          </mxGeometry>
        </mxCell>
        <mxCell id="O8RlAg53PrCzjrN2fHx7-607" value="" style="curved=1;startArrow=none;endArrow=block;exitX=1;exitY=0.19;entryX=0;entryY=0.51;rounded=0;" edge="1" parent="1" source="O8RlAg53PrCzjrN2fHx7-582" target="O8RlAg53PrCzjrN2fHx7-584">
          <mxGeometry relative="1" as="geometry">
            <Array as="points">
              <mxPoint x="772" y="9425" />
            </Array>
          </mxGeometry>
        </mxCell>
        <mxCell id="O8RlAg53PrCzjrN2fHx7-608" value="" style="curved=1;startArrow=none;endArrow=block;exitX=1;exitY=0.83;entryX=0;entryY=0.5;rounded=0;" edge="1" parent="1" source="O8RlAg53PrCzjrN2fHx7-582" target="O8RlAg53PrCzjrN2fHx7-585">
          <mxGeometry relative="1" as="geometry">
            <Array as="points">
              <mxPoint x="772" y="9524" />
            </Array>
          </mxGeometry>
        </mxCell>
        <mxCell id="O8RlAg53PrCzjrN2fHx7-609" value="" style="curved=1;startArrow=none;endArrow=block;exitX=1;exitY=0.51;entryX=0;entryY=0.51;rounded=0;" edge="1" parent="1" source="O8RlAg53PrCzjrN2fHx7-581" target="O8RlAg53PrCzjrN2fHx7-586">
          <mxGeometry relative="1" as="geometry">
            <Array as="points" />
          </mxGeometry>
        </mxCell>
        <mxCell id="O8RlAg53PrCzjrN2fHx7-610" value="" style="curved=1;startArrow=none;endArrow=block;exitX=1;exitY=0.19;entryX=0;entryY=0.5;rounded=0;" edge="1" parent="1" source="O8RlAg53PrCzjrN2fHx7-586" target="O8RlAg53PrCzjrN2fHx7-587">
          <mxGeometry relative="1" as="geometry">
            <Array as="points">
              <mxPoint x="772" y="9622" />
            </Array>
          </mxGeometry>
        </mxCell>
        <mxCell id="O8RlAg53PrCzjrN2fHx7-611" value="" style="curved=1;startArrow=none;endArrow=block;exitX=1;exitY=0.83;entryX=0;entryY=0.51;rounded=0;" edge="1" parent="1" source="O8RlAg53PrCzjrN2fHx7-586" target="O8RlAg53PrCzjrN2fHx7-588">
          <mxGeometry relative="1" as="geometry">
            <Array as="points">
              <mxPoint x="772" y="9721" />
            </Array>
          </mxGeometry>
        </mxCell>
        <mxCell id="O8RlAg53PrCzjrN2fHx7-612" value="" style="curved=1;startArrow=none;endArrow=block;exitX=0.59;exitY=1.01;entryX=0;entryY=0.5;rounded=0;" edge="1" parent="1" source="O8RlAg53PrCzjrN2fHx7-581" target="O8RlAg53PrCzjrN2fHx7-589">
          <mxGeometry relative="1" as="geometry">
            <Array as="points">
              <mxPoint x="479" y="9868" />
            </Array>
          </mxGeometry>
        </mxCell>
        <mxCell id="O8RlAg53PrCzjrN2fHx7-613" value="" style="curved=1;startArrow=none;endArrow=block;exitX=1;exitY=0.18;entryX=0;entryY=0.5;rounded=0;" edge="1" parent="1" source="O8RlAg53PrCzjrN2fHx7-589" target="O8RlAg53PrCzjrN2fHx7-590">
          <mxGeometry relative="1" as="geometry">
            <Array as="points">
              <mxPoint x="772" y="9819" />
            </Array>
          </mxGeometry>
        </mxCell>
        <mxCell id="O8RlAg53PrCzjrN2fHx7-614" value="" style="curved=1;startArrow=none;endArrow=block;exitX=1;exitY=0.83;entryX=0;entryY=0.51;rounded=0;" edge="1" parent="1" source="O8RlAg53PrCzjrN2fHx7-589" target="O8RlAg53PrCzjrN2fHx7-591">
          <mxGeometry relative="1" as="geometry">
            <Array as="points">
              <mxPoint x="772" y="9917" />
            </Array>
          </mxGeometry>
        </mxCell>
        <mxCell id="O8RlAg53PrCzjrN2fHx7-615" value="" style="curved=1;startArrow=none;endArrow=block;exitX=0.55;exitY=1;entryX=0;entryY=0.5;rounded=0;" edge="1" parent="1" source="O8RlAg53PrCzjrN2fHx7-572" target="O8RlAg53PrCzjrN2fHx7-592">
          <mxGeometry relative="1" as="geometry">
            <Array as="points">
              <mxPoint x="304" y="10065" />
            </Array>
          </mxGeometry>
        </mxCell>
        <mxCell id="O8RlAg53PrCzjrN2fHx7-616" value="" style="curved=1;startArrow=none;endArrow=block;exitX=0.67;exitY=0;entryX=0;entryY=0.51;rounded=0;" edge="1" parent="1" source="O8RlAg53PrCzjrN2fHx7-592" target="O8RlAg53PrCzjrN2fHx7-593">
          <mxGeometry relative="1" as="geometry">
            <Array as="points">
              <mxPoint x="479" y="9967" />
            </Array>
          </mxGeometry>
        </mxCell>
        <mxCell id="O8RlAg53PrCzjrN2fHx7-617" value="" style="curved=1;startArrow=none;endArrow=block;exitX=1;exitY=0.5;entryX=0;entryY=0.5;rounded=0;" edge="1" parent="1" source="O8RlAg53PrCzjrN2fHx7-592" target="O8RlAg53PrCzjrN2fHx7-594">
          <mxGeometry relative="1" as="geometry">
            <Array as="points" />
          </mxGeometry>
        </mxCell>
        <mxCell id="O8RlAg53PrCzjrN2fHx7-618" value="" style="curved=1;startArrow=none;endArrow=block;exitX=0.67;exitY=1;entryX=0;entryY=0.51;rounded=0;" edge="1" parent="1" source="O8RlAg53PrCzjrN2fHx7-592" target="O8RlAg53PrCzjrN2fHx7-595">
          <mxGeometry relative="1" as="geometry">
            <Array as="points">
              <mxPoint x="479" y="10163" />
            </Array>
          </mxGeometry>
        </mxCell>
      </root>
    </mxGraphModel>
  </diagram>
</mxfile>
